<?xml version="1.0" standalone="no"?><!DOCTYPE svg PUBLIC "-//W3C//DTD SVG 1.1//EN" "http://www.w3.org/Graphics/SVG/1.1/DTD/svg11.dtd"><svg t="1547642944779" class="icon" style="" viewBox="0 0 1122 1024" version="1.1" xmlns="http://www.w3.org/2000/svg" p-id="18446" xmlns:xlink="http://www.w3.org/1999/xlink" width="219.140625" height="200"><defs><style type="text/css"></style></defs><path d="M873.931034 838.62069c-8.827586 0-15.889655-7.062069-15.889655-15.889656V476.689655l-178.317241-102.4V459.034483c0 5.296552-3.531034 10.593103-8.827586 14.124138-5.296552 3.531034-10.593103 3.531034-15.889655 0l-181.848276-98.868966v82.979311c0 5.296552-3.531034 10.593103-8.827587 14.124137-5.296552 3.531034-10.593103 3.531034-15.889655 0l-188.910345-97.103448v450.206897c0 8.827586-7.062069 15.889655-15.889655 15.889655s-15.889655-7.062069-15.889655-15.889655v-476.689655c0-5.296552 3.531034-10.593103 8.827586-14.124138 5.296552-3.531034 10.593103-3.531034 15.889656 0L441.37931 430.786207v-82.97931c0-5.296552 3.531034-10.593103 8.827587-14.124138 5.296552-3.531034 10.593103-3.531034 15.889655 0l181.848276 98.868965v-84.744827c0-5.296552 3.531034-10.593103 8.827586-14.124138 5.296552-3.531034 10.593103-3.531034 15.889655 0l211.862069 121.820689c5.296552 3.531034 8.827586 8.827586 8.827586 14.124138v354.868966c-1.765517 7.062069-8.827586 14.124138-19.42069 14.124138z" fill="#3164AF" p-id="18447"></path><path d="M911.006897 852.744828H201.268966c-8.827586 0-15.889655-7.062069-15.889656-15.889656s7.062069-15.889655 15.889656-15.889655h707.972413c8.827586 0 15.889655 7.062069 15.889655 15.889655s-5.296552 15.889655-14.124137 15.889656zM517.296552 623.227586h-150.068966c-8.827586 0-15.889655-7.062069-15.889655-15.889655v-81.213793c0-8.827586 7.062069-15.889655 15.889655-15.889655h150.068966c8.827586 0 15.889655 7.062069 15.889655 15.889655v81.213793c1.765517 8.827586-5.296552 15.889655-15.889655 15.889655z m-134.179311-33.544827h118.289656v-47.668966h-118.289656v47.668966zM746.813793 623.227586h-150.068965c-8.827586 0-15.889655-7.062069-15.889656-15.889655v-81.213793c0-8.827586 7.062069-15.889655 15.889656-15.889655h150.068965c8.827586 0 15.889655 7.062069 15.889655 15.889655v81.213793c0 8.827586-7.062069 15.889655-15.889655 15.889655z m-134.17931-33.544827h118.289655v-47.668966h-118.289655v47.668966zM517.296552 773.296552h-150.068966c-8.827586 0-15.889655-7.062069-15.889655-15.889655v-81.213794c0-8.827586 7.062069-15.889655 15.889655-15.889655h150.068966c8.827586 0 15.889655 7.062069 15.889655 15.889655v81.213794c1.765517 8.827586-5.296552 15.889655-15.889655 15.889655z m-134.179311-33.544828h118.289656v-47.668965h-118.289656v47.668965zM746.813793 773.296552h-150.068965c-8.827586 0-15.889655-7.062069-15.889656-15.889655v-81.213794c0-8.827586 7.062069-15.889655 15.889656-15.889655h150.068965c8.827586 0 15.889655 7.062069 15.889655 15.889655v81.213794c0 8.827586-7.062069 15.889655-15.889655 15.889655z m-134.17931-33.544828h118.289655v-47.668965h-118.289655v47.668965zM854.510345 462.565517c-8.827586 0-15.889655-7.062069-15.889655-15.889655L810.372414 157.131034h-58.262069l-24.717242 194.206897c-1.765517 8.827586-8.827586 15.889655-17.655172 14.124138-8.827586-1.765517-15.889655-8.827586-14.124138-17.655172l26.482759-210.096552c1.765517-8.827586 8.827586-14.124138 15.889655-14.124138h88.275862c8.827586 0 15.889655 7.062069 15.889655 15.889655l30.013793 305.434483c0 8.827586-7.062069 17.655172-17.655172 17.655172 1.765517 0 1.765517 0 0 0z" fill="#3164AF" p-id="18448"></path><path d="M828.027586 241.875862h-102.4c-8.827586 0-15.889655-7.062069-15.889655-15.889655s7.062069-15.889655 15.889655-15.889655h102.4c8.827586 0 15.889655 7.062069 15.889655 15.889655s-5.296552 15.889655-15.889655 15.889655z" fill="#3164AF" p-id="18449"></path></svg>