<?xml version="1.0" standalone="no"?><!DOCTYPE svg PUBLIC "-//W3C//DTD SVG 1.1//EN" "http://www.w3.org/Graphics/SVG/1.1/DTD/svg11.dtd"><svg t="1546182108418" class="icon" style="" viewBox="0 0 1024 1024" version="1.1" xmlns="http://www.w3.org/2000/svg" p-id="1435" xmlns:xlink="http://www.w3.org/1999/xlink" width="200" height="200"><defs><style type="text/css"></style></defs><path d="M567.3 784l310.2-627.9V85.9L567.3 628.8h-66.5V784z" fill="#F7D04A" p-id="1436"></path><path d="M877.5 156.1V85.9L776.7 262.4l31.4 34.3zM567.3 628.8h-66.5V784h66.5l58.8-119-33.9-79.7z" fill="#F3B41B" p-id="1437"></path><path d="M600.5 784H164.7c-44.9 0-81.3 36.4-81.3 81.3s36.4 81.3 81.3 81.3h435.8c44.9 0 81.3-36.4 81.3-81.3 0-45-36.4-81.3-81.3-81.3z" fill="#808080" p-id="1438"></path><path d="M944 445.1c-7.6 0-13.9 6.2-13.9 13.9 0 22.9-18.6 41.6-41.6 41.6-22.9 0-41.6-18.6-41.6-41.6 0-22.9 18.6-41.6 41.6-41.6 7.6 0 13.9-6.2 13.9-13.9V362H920c7.7 0 13.9-6.2 13.9-13.9s-6.2-13.9-13.9-13.9h-17.5V201.8c31.6-6.4 55.4-34.4 55.4-67.9 0-38.2-31.1-69.2-69.3-69.2-38.2 0-69.3 31.1-69.3 69.3 0 7.1 1.1 14 3.1 20.5L774.7 238c-3.5 6-1.8 14 3.9 18.1 6.6 4.8 16.2 2.8 20.2-4.3l39.9-69.8c2.3 2.4 4.8 4.6 7.4 6.7l-265 536v-92.2l192.3-336.6c3.8-6.6 1.5-15.1-5.2-18.9-6.6-3.8-15.1-1.5-18.9 5.2L559.3 615H433.4V505.1c0-53.5-43.5-97-97-97H225.7c-22.9 0-41.6 18.6-41.6 41.6v320.4h-19.4c-52.4 0-95.1 42.7-95.1 95.1 0 52.4 42.7 95.1 95.1 95.1h302.9c7.6 0 13.9-6.2 13.9-13.9s-6.2-13.9-13.9-13.9H164.7c-37.2 0-67.4-30.2-67.4-67.4s30.2-67.4 67.4-67.4h435.8c37.2 0 67.4 30.2 67.4 67.4s-30.2 67.4-67.4 67.4h-73.9c-7.6 0-13.9 6.2-13.9 13.9s6.2 13.9 13.9 13.9h73.9c52.4 0 95.1-42.7 95.1-95.1 0-52.4-42.7-95.1-95.1-95.1h-10.9l281.3-569.3c1.3 0.3 2.6 0.7 3.9 0.9v132.5h-17.5c-7.6 0-13.9 6.2-13.9 13.9s6.2 13.9 13.9 13.9h17.5v29.1c-31.6 6.4-55.4 34.4-55.4 67.9 0 38.2 31.1 69.3 69.3 69.3 38.2 0 69.3-31.1 69.3-69.3-0.1-7.7-6.3-13.9-14-13.9z" fill="" p-id="1439"></path><path d="M651.3 865.2c0-28-22.8-50.8-50.8-50.8H164.7c-28 0-50.8 22.8-50.8 50.8 0 28 22.8 50.8 50.8 50.8h435.8c28 0 50.8-22.8 50.8-50.8z" fill="" p-id="1440"></path><path d="M164.7 902.1c-20.4 0-36.9-16.6-36.9-36.9 0-20.4 16.6-36.9 36.9-36.9h435.8c20.4 0 36.9 16.6 36.9 36.9 0 20.4-16.6 36.9-36.9 36.9H164.7z" fill="" p-id="1441"></path><path d="M141.6 865.2c0-12.7 10.4-23.1 23.1-23.1h435.8c12.7 0 23.1 10.4 23.1 23.1 0 12.7-10.4 23.1-23.1 23.1H164.7c-12.7 0-23.1-10.4-23.1-23.1z" fill="#CCCCCC" p-id="1442"></path><path d="M211.8 449.7c0-7.6 6.2-13.9 13.9-13.9h110.8c38.2 0 69.3 31.1 69.3 69.3v123.7c0 7.7 6.2 13.9 13.9 13.9h133.9v127.4H211.8V449.7zM888.6 92.4c22.9 0 41.6 18.6 41.6 41.6s-18.6 41.5-41.6 41.5-41.6-18.6-41.6-41.6c0.1-22.9 18.7-41.5 41.6-41.5z" fill="#F7D04A" p-id="1443"></path><path d="M888.6 133.9m-22.2 0a22.2 22.2 0 1 0 44.4 0 22.2 22.2 0 1 0-44.4 0Z" fill="#F3B41B" p-id="1444"></path><path d="M212 732.9h341.3v37.4H212z" fill="#F3B41B" p-id="1445"></path><path d="M336.5 452.5h-94.2c-7.6 0-13.9 6.2-13.9 13.9v162.5c0 7.7 6.2 13.9 13.9 13.9h133c7.6 0 13.9-6.2 13.9-13.9V505.1c-0.1-29-23.7-52.6-52.7-52.6z" fill="" p-id="1446"></path><path d="M361.4 615H256.1V480.2h80.3c13.7 0 24.9 11.2 24.9 24.9l0.1 109.9z" fill="#FFFFFF" p-id="1447"></path><path d="M441.7 683.3H523c7.6 0 13.9-6.2 13.9-13.9s-6.2-13.9-13.9-13.9h-81.3c-7.6 0-13.9 6.2-13.9 13.9s6.3 13.9 13.9 13.9zM523 699.9h-81.3c-7.6 0-13.9 6.2-13.9 13.9s6.2 13.9 13.9 13.9H523c7.6 0 13.9-6.2 13.9-13.9-0.1-7.7-6.3-13.9-13.9-13.9zM286.6 655.6h-44.3c-7.6 0-13.9 6.2-13.9 13.9s6.2 13.9 13.9 13.9h44.3c7.6 0 13.9-6.2 13.9-13.9-0.1-7.7-6.3-13.9-13.9-13.9z" fill="" p-id="1448"></path><path d="M164.7 828.3c-20.4 0-36.9 16.6-36.9 36.9 0 20.4 16.6 36.9 36.9 36.9h220l-99.3-73.9-120.7 0.1z" fill="" p-id="1449"></path></svg>