<?xml version="1.0" standalone="no"?><!DOCTYPE svg PUBLIC "-//W3C//DTD SVG 1.1//EN" "http://www.w3.org/Graphics/SVG/1.1/DTD/svg11.dtd"><svg t="1547640994424" class="icon" style="" viewBox="0 0 1024 1024" version="1.1" xmlns="http://www.w3.org/2000/svg" p-id="9641" xmlns:xlink="http://www.w3.org/1999/xlink" width="200" height="200"><defs><style type="text/css"></style></defs><path d="M961.4336 397.824v567.466667h-51.2l-0.426667-565.998934C900.352 237.038933 725.640533 109.909333 512 109.909333S123.665067 237.021867 114.2272 399.3088l-0.443733 7.7312v558.267733h-51.2l2.9696-593.066666C91.0848 194.56 281.6 58.709333 512 58.709333c230.4 0 420.9152 135.850667 446.481067 313.514667" fill="" p-id="9642"></path><path d="M834.56 556.270933v409.0368h-34.133333l-0.324267-408.064C793.258667 439.552 666.709333 347.357867 512 347.357867c-154.709333 0-281.258667 92.194133-288.1024 209.885866l-0.341333 5.700267v402.363733h-34.133334l1.962667-426.103466C209.032533 411.2384 346.112 313.207467 512 313.207467c165.870933 0 302.9504 98.030933 320.597333 225.9968" fill="" p-id="9643"></path><path d="M541.1328 965.307733h-64l13.1584-178.397866c-20.804267-3.908267-81.851733-18.6368-97.092267-52.036267-7.799467-17.169067-6.4-36.3008 7.5264-57.2928 5.7344-7.8336 16.981333-12.168533 28.859734-12.168533 23.7056 0 56.661333 24.593067 74.205866 61.764266 8.704-34.2016 28.962133-86.9376 72.567467-86.9376 8.482133 0 17.5104 1.792 26.845867 5.358934 11.434667 4.932267 32.904533 27.426133 32.290133 57.668266-0.512 24.866133-33.809067 61.3376-106.120533 90.7264l11.758933 171.3152z" fill="" p-id="9644"></path></svg>