<?xml version="1.0" standalone="no"?><!DOCTYPE svg PUBLIC "-//W3C//DTD SVG 1.1//EN" "http://www.w3.org/Graphics/SVG/1.1/DTD/svg11.dtd"><svg t="1547640882676" class="icon" style="" viewBox="0 0 1024 1024" version="1.1" xmlns="http://www.w3.org/2000/svg" p-id="6423" xmlns:xlink="http://www.w3.org/1999/xlink" width="200" height="200"><defs><style type="text/css"></style></defs><path d="M904 120H120c-31.1 0-56 25.2-56 56.4v671.2c0 31.2 25.1 56.4 56 56.4h784c31.1 0 56-25.2 56-56.4V176.4c0-31.2-25.1-56.4-56-56.4z m0 728H120V176h784v672z" fill="#6CB5F4" p-id="6424"></path><path d="M625.5 652.2h78.9c43.9 0 78.9-35.6 78.9-79.4V462.1c0-44.2-35.3-79.4-78.9-79.4h-78.9v-16.8H573v304h52.6v-17.7z m0-219h52.6c29 0 52.6 23.4 52.6 52.4v63.7c0 28.9-23.3 52.4-52.6 52.4h-52.6V433.2zM300.4 601.6h127.8l25.3 77.8 50-16.2-104.1-320.4-50 16.2 9.3 28.8-39.9-13-93.7 288.3 50 16.2 25.3-77.7zM364.3 405l47.5 146.1h-94.9L364.3 405z" fill="#6CB5F4" p-id="6425"></path></svg>