<?xml version="1.0" standalone="no"?><!DOCTYPE svg PUBLIC "-//W3C//DTD SVG 1.1//EN" "http://www.w3.org/Graphics/SVG/1.1/DTD/svg11.dtd"><svg t="1547467043056" class="icon" style="" viewBox="0 0 1024 1024" version="1.1" xmlns="http://www.w3.org/2000/svg" p-id="21457" xmlns:xlink="http://www.w3.org/1999/xlink" width="200" height="200"><defs><style type="text/css"></style></defs><path d="M512 885.696c-205.12 0-371.989333-166.869333-371.989333-372.010667S306.88 141.696 512 141.696c205.098667 0 371.968 166.869333 371.968 372.010667S717.098667 885.696 512 885.696z m0-724.949333c-194.581333 0-352.917333 158.336-352.917333 352.938666S317.418667 866.645333 512 866.645333c194.602667 0 352.917333-158.357333 352.917333-352.96C864.938667 319.082667 706.645333 160.746667 512 160.746667z" fill="#00A0E8" p-id="21458"></path><path d="M512 744.256c-127.104 0-230.528-103.488-230.528-230.592 0-127.125333 103.402667-230.528 230.528-230.528s230.528 103.381333 230.528 230.528c0.021333 127.104-103.402667 230.592-230.528 230.592z m0-442.026667c-116.586667 0-211.434667 94.848-211.434667 211.434667 0 116.608 94.848 211.456 211.434667 211.456 116.544 0 211.456-94.848 211.456-211.456 0-116.586667-94.826667-211.434667-211.456-211.434667z" fill="#00A0E8" p-id="21459"></path><path d="M512 621.397333a107.84 107.84 0 0 1-107.690667-107.712c0-59.392 48.32-107.690667 107.690667-107.690666s107.733333 48.32 107.733333 107.690666A107.797333 107.797333 0 0 1 512 621.397333z m0-196.330666a88.725333 88.725333 0 0 0-88.618667 88.618666A88.618667 88.618667 0 1 0 512 425.066667z" fill="#00A0E8" p-id="21460"></path><path d="M501.952 155.989333h19.093333v728.128h-19.093333V155.989333z" fill="#00A0E8" p-id="21461"></path><path d="M147.434667 510.506667h728.170666v19.093333H147.434667v-19.093333zM284.138667 362.709333a60.437333 60.437333 0 0 0 120.832 0.042667v-0.042667a60.437333 60.437333 0 1 0-120.832 0zM595.712 683.818667a60.437333 60.437333 0 0 0 60.394667 60.437333 60.330667 60.330667 0 0 0 60.437333-60.394667v-0.042666a60.416 60.416 0 0 0-120.832 0z" fill="#00A0E8" p-id="21462"></path></svg>