<?xml version="1.0" standalone="no"?><!DOCTYPE svg PUBLIC "-//W3C//DTD SVG 1.1//EN" "http://www.w3.org/Graphics/SVG/1.1/DTD/svg11.dtd"><svg t="1547467391855" class="icon" style="" viewBox="0 0 1024 1024" version="1.1" xmlns="http://www.w3.org/2000/svg" p-id="23453" xmlns:xlink="http://www.w3.org/1999/xlink" width="200" height="200"><defs><style type="text/css"></style></defs><path d="M727.552 614.912c-59.392 0-131.584-20.48-218.112-76.8-253.44-165.376-406.016-25.6-412.16-19.968-10.24 9.728-26.624 9.216-36.352-1.024s-9.216-26.112 1.024-35.84c2.048-2.048 48.128-45.568 130.56-65.024 74.752-17.92 195.584-18.432 345.088 79.36 219.136 142.848 321.536 25.088 370.688-31.232 8.704-9.728 14.848-16.896 20.992-22.016 11.264-8.704 27.136-6.656 35.84 4.096 8.704 11.264 6.656 27.136-4.096 35.84-2.56 2.048-8.704 9.216-14.336 15.36-32.256 37.888-101.376 117.248-219.136 117.248z" fill="#FF9D4D" p-id="23454"></path><path d="M512 2.56C231.424 2.56 3.584 229.888 3.584 510.976S231.424 1018.88 512 1018.88s508.416-227.328 508.416-508.416S793.088 2.56 512 2.56z m0 941.568c-239.616 0-433.664-194.048-433.664-433.664C78.336 270.848 272.384 76.8 512 76.8s433.664 194.048 433.664 433.664-194.048 433.664-433.664 433.664z" fill="#F4DCCB" p-id="23455"></path></svg>