<?xml version="1.0" standalone="no"?><!DOCTYPE svg PUBLIC "-//W3C//DTD SVG 1.1//EN" "http://www.w3.org/Graphics/SVG/1.1/DTD/svg11.dtd"><svg t="1547638873705" class="icon" style="" viewBox="0 0 1024 1024" version="1.1" xmlns="http://www.w3.org/2000/svg" p-id="1452" xmlns:xlink="http://www.w3.org/1999/xlink" width="200" height="200"><defs><style type="text/css"></style></defs><path d="M612.224 287.04a16.128 16.128 0 0 1-11.264 15.04l-105.984 33.472 58.624 120.96a16 16 0 0 1 4.352 11.008c0 9.024-7.104 17.28-16.512 16.128a18.752 18.752 0 0 1-5.184-0.704l-76.992-23.616v246.976c0 117.12 95.232 212.352 212.352 212.352s212.352-95.232 212.352-212.352V333.504a212.544 212.544 0 0 0-212.352-212.352c-79.296 0-147.712 44.16-184.192 108.672l114.176 41.728a16.192 16.192 0 0 1 10.624 15.488z m7.552 54.784a60.928 60.928 0 0 1 121.664 0v374.08a60.928 60.928 0 0 1-121.664 0V341.824z" fill="#F7F7F7" p-id="1453"></path><path d="M671.616 80.768a251.904 251.904 0 0 0-178.944 74.496l-12.928 71.744 7.68 2.816a211.648 211.648 0 0 1 184.192-108.672 212.544 212.544 0 0 1 212.352 212.352v372.8c0 117.12-95.232 212.352-212.352 212.352s-212.352-95.232-212.352-212.352V459.328l-40.384-12.352v259.328c0 139.392 113.344 252.736 252.736 252.736s252.736-113.344 252.736-252.736V333.504a252.928 252.928 0 0 0-252.736-252.736z" fill="#2081D1" p-id="1454"></path><path d="M312.448 324.928l36.8 52.352L284.48 478.08l-5.888 63.552 82.88-133.44a16.256 16.256 0 0 1 18.432-6.912l130.496 40-52.544-108.416a16.192 16.192 0 0 1 9.6-22.464l78.656-24.896-90.176-32.896a16.192 16.192 0 0 1-10.304-17.984l15.424-85.952-55.68 73.728a16 16 0 0 1-11.712 6.4 14.848 14.848 0 0 1-12.608-4.672l-49.216-49.408v7.936l56.768 97.536-76.16 44.736z" fill="#AACEEC" p-id="1455"></path><path d="M459.264 459.328l76.992 23.616c1.664 0.448 2.688 0.64 5.184 0.704 9.344 1.152 16.512-7.104 16.512-16.128a16.128 16.128 0 0 0-4.352-11.008l-58.624-120.96L600.96 302.08a16.128 16.128 0 0 0 0.704-30.528l-114.24-41.728-7.68-2.816 12.928-71.744 12.096-67.264A16 16 0 0 0 495.36 70.4a15.872 15.872 0 0 0-19.328 5.056L390.848 188.224l-63.616-63.808a16.064 16.064 0 0 0-27.584 11.392L299.52 216.192l-143.232-41.856a15.808 15.808 0 0 0-18.304 7.168 16.128 16.128 0 0 0 2.304 19.648l97.28 99.264-128 104.128a16.128 16.128 0 0 0-4.608 18.88c2.816 6.656 9.664 9.984 16.96 9.6l136.064-18.24-17.856 191.936a16.256 16.256 0 0 0 16.064 17.664 16.064 16.064 0 0 0 13.696-7.616l112.384-180.992 36.608 11.2 40.384 12.352zM174.272 393.472l97.344-79.296a16.128 16.128 0 0 0 1.344-23.808L206.464 222.656l104.64 30.592a16.192 16.192 0 0 0 20.672-15.488l0.128-54.976v-7.936l49.28 49.344a14.784 14.784 0 0 0 12.544 4.672 16.128 16.128 0 0 0 11.776-6.4l55.68-73.728-15.552 85.888a16.192 16.192 0 0 0 10.304 17.984l90.112 32.96-78.592 24.896a16.192 16.192 0 0 0-9.6 22.4l52.544 108.352-130.496-39.936a16.384 16.384 0 0 0-18.432 6.912L278.592 541.632l5.888-63.552 7.488-80.448a16 16 0 0 0-16.064-17.6l-2.112 0.128-99.52 13.312z" fill="#2081D1" p-id="1456"></path><path d="M680.576 744.448c15.808 0 28.608-12.8 28.608-28.544V341.824a28.608 28.608 0 1 0-57.152 0v374.08c0 15.744 12.8 28.544 28.544 28.544z" fill="#F7F7F7" p-id="1457"></path><path d="M680.576 776.704a60.928 60.928 0 0 0 60.864-60.8V341.824a60.928 60.928 0 0 0-121.664 0v374.08c0 33.536 27.264 60.8 60.8 60.8z m-28.544-434.88a28.608 28.608 0 1 1 57.152 0v374.08a28.608 28.608 0 0 1-57.152 0V341.824z" fill="#2081D1" p-id="1458"></path></svg>