<?xml version="1.0" standalone="no"?><!DOCTYPE svg PUBLIC "-//W3C//DTD SVG 1.1//EN" "http://www.w3.org/Graphics/SVG/1.1/DTD/svg11.dtd"><svg t="1547466195095" class="icon" style="" viewBox="0 0 1024 1024" version="1.1" xmlns="http://www.w3.org/2000/svg" p-id="19569" xmlns:xlink="http://www.w3.org/1999/xlink" width="200" height="200"><defs><style type="text/css"></style></defs><path d="M568.32 971.264l-23.04 27.648c-1.024-14.848-2.048-29.696-3.584-44.032l23.04-27.648c1.024 14.848 2.048 29.184 3.584 44.032" fill="#B6A6A7" p-id="19570"></path><path d="M564.736 927.232l-23.04 27.648c-0.512-8.192-1.536-16.384-2.56-24.576v-1.024l23.04-27.648v1.024c1.024 8.192 1.536 16.384 2.56 24.576" fill="#B6A6A7" p-id="19571"></path><path d="M562.176 901.632l-23.04 27.648v-2.048l23.04-27.648v2.048" fill="#B6A6A7" p-id="19572"></path><path d="M562.176 899.584l-23.04 27.648v-1.024l23.04-27.648v1.024" fill="#B6A6A7" p-id="19573"></path><path d="M562.176 898.56l-23.04 27.648v-1.024l23.04-27.648v1.024" fill="#B6A6A7" p-id="19574"></path><path d="M562.176 897.536l-23.04 27.648v-1.024l23.04-27.648v1.024" fill="#B6A6A7" p-id="19575"></path><path d="M562.176 896.512l-23.04 27.648v-0.512l23.04-27.648c0.512 0 0 0.512 0 0.512" fill="#B6A6A7" p-id="19576"></path><path d="M562.688 896l-23.04 27.648v-0.512l23.04-27.648v0.512" fill="#B6A6A7" p-id="19577"></path><path d="M562.688 895.488l-23.04 27.648s0-0.512 0.512-0.512l23.04-27.648s-0.512 0-0.512 0.512M563.2 894.464l-23.04 27.648c0-0.512 0.512-0.512 0.512-1.024l23.04-27.648c0 0.512-0.512 1.024-0.512 1.024" fill="#B6A6A7" p-id="19578"></path><path d="M519.68 843.264c0.512 0 0.512 0 0 0 0.512 0.512 0.512 1.024 1.024 1.536 0.512 0.512 0.512 1.024 1.024 2.048l23.04-27.648c-0.512-0.512-1.024-1.536-1.024-2.048-0.512-0.512-0.512-1.024-1.024-1.536v-0.512l-0.512-0.512v-0.512s0-0.512-0.512-0.512c-1.024-2.048-1.536-4.096-2.56-6.144l-6.144-13.824c0-0.512 0-0.512-0.512-1.024v-0.512c-1.536-3.584-3.584-7.168-5.632-10.752-0.512-1.024-1.024-1.536-1.536-2.56-2.048-3.584-4.096-7.168-6.656-10.752 0 0 0-0.512-0.512-0.512-2.048-3.072-4.096-5.632-6.144-8.704-0.512-1.024-1.024-1.536-2.048-2.56-2.56-3.072-5.12-6.144-7.68-8.704-3.584-3.584-7.168-7.168-11.264-10.752-1.024-0.512-1.536-1.536-2.56-2.048-3.584-3.584-7.68-6.656-11.264-9.728-0.512-0.512-1.024-1.024-2.048-1.536-2.048-1.536-3.584-3.072-5.632-4.608-1.536-1.024-2.56-2.048-4.096-3.072-1.536-1.024-3.072-2.048-4.096-3.072-3.072-2.048-6.656-4.608-9.728-6.656-1.024-0.512-2.048-1.536-3.072-2.048-4.608-2.56-8.704-5.632-13.312-8.192l-3.072-1.536c-2.56-1.536-5.12-3.072-8.192-4.608-0.512-0.512-1.536-0.512-2.048-1.024-3.584-2.048-7.68-4.096-11.264-5.632-1.536-1.024-3.584-1.536-5.12-2.56-5.632-2.56-10.752-5.12-16.384-8.192-4.608-2.048-8.704-4.096-13.312-6.144-1.024-0.512-2.56-1.024-3.584-1.536-4.608-2.048-9.216-4.608-13.824-7.168-1.024-0.512-2.048-1.024-3.072-2.048-2.56-1.536-5.12-2.56-7.168-4.096-1.024-0.512-2.56-1.536-3.584-2.56-2.56-1.536-4.608-3.072-7.168-5.12-1.024-1.024-2.56-1.536-3.584-2.56-0.512-0.512-1.024-0.512-1.024-1.024-2.56-2.048-5.12-4.096-7.168-6.144l-1.024-1.024c-2.56-2.56-5.12-4.608-7.168-7.168-1.536-2.048-3.072-3.584-4.608-5.632-0.512-0.512-1.024-1.536-1.536-2.048-1.024-1.024-2.048-2.56-2.56-4.096 0-0.512-0.512-0.512-0.512-1.024-1.024-2.048-2.56-3.584-3.584-5.632-0.512-0.512-1.024-1.536-1.024-2.048-1.024-1.536-1.536-3.072-2.048-4.608l-1.536-3.072c-0.512-0.512-0.512-1.536-1.024-2.048-0.512-1.536-1.024-2.56-1.536-4.096 0-0.512-0.512-1.024-0.512-1.536 0-0.512 0-1.024-0.512-1.024-1.024-2.56-1.536-4.608-2.048-7.168-0.512-1.024-0.512-2.56-1.024-3.584l-23.04 27.648c0 1.024 0.512 1.536 0.512 2.56 0 0.512 0 0.512 0.512 1.024 0.512 2.56 1.536 4.608 2.048 7.168V617.984c0 0.512 0.512 1.024 0.512 1.536 0.512 1.536 1.024 2.56 1.536 4.096 0.512 0.512 0.512 1.536 1.024 2.048 0.512 0.512 0.512 1.536 1.024 2.048 0 0.512 0.512 0.512 0.512 1.024 0.512 1.536 1.536 3.072 2.048 4.608 0.512 0.512 1.024 1.536 1.024 2.048 1.024 2.048 2.048 3.584 3.584 5.632l0.512 0.512c1.024 1.024 1.536 2.56 2.56 3.584 0.512 0.512 1.024 1.536 1.536 2.048 1.536 2.048 3.072 3.584 4.608 5.632 2.56 2.56 4.608 5.12 7.168 7.168l1.024 1.024c2.56 2.048 4.608 4.096 7.168 6.144 0.512 0.512 1.024 0.512 1.024 1.024 0.512 0.512 1.024 0.512 1.536 1.024 1.024 0.512 1.536 1.024 2.56 1.536 2.56 1.536 4.608 3.584 7.168 5.12 1.024 1.024 2.56 1.536 3.584 2.56 2.56 1.536 5.12 3.072 7.168 4.096 0.512 0.512 1.536 1.024 2.048 1.024 0.512 0 1.024 0.512 1.024 0.512 4.608 2.56 9.216 4.608 13.824 7.168 1.024 0.512 2.56 1.024 3.584 1.536 4.608 2.048 8.704 4.096 13.312 6.144 5.632 2.56 11.264 5.12 16.384 8.192 1.536 1.024 3.584 1.536 5.12 2.56 3.584 2.048 7.68 3.584 11.264 5.632 3.584 2.048 6.656 3.584 10.24 5.632l3.072 1.536c4.608 2.56 8.704 5.12 13.312 8.192 1.024 0.512 2.048 1.536 3.072 2.048 3.072 2.048 6.656 4.096 9.728 6.656 1.536 1.024 3.072 2.048 4.096 3.072 3.584 2.56 6.656 5.12 9.728 7.68 0.512 0.512 1.024 1.024 2.048 1.536 4.096 3.072 7.68 6.144 11.264 9.728 1.024 0.512 1.536 1.536 2.56 2.048 3.584 3.584 7.68 7.168 11.264 10.752 2.56 3.072 5.12 5.632 7.68 8.704 0.512 1.024 1.024 1.536 2.048 2.56 2.048 3.072 4.608 5.632 6.144 8.704l0.512 0.512c2.048 3.584 4.608 7.168 6.656 10.752 0.512 1.024 1.024 1.536 1.536 2.56 2.048 3.584 3.584 7.168 5.632 10.752 0 0.512 0.512 1.024 0.512 1.536l6.144 13.824c1.024 2.048 1.536 4.096 2.56 6.144 0 0 0 0.512 0.512 0.512v0.512c0.512 1.536 0.512 1.536 0.512 2.048z" fill="#CDB9BB" p-id="19579"></path><path d="M601.6 769.024l-23.04 27.648c-8.192 9.728-16.896 18.432-26.112 27.136-9.216 8.192-19.968 15.36-30.208 23.04l23.04-27.648c10.24-7.68 20.992-14.336 30.208-23.04 9.216-8.704 17.92-17.408 26.112-27.136" fill="#CDB9BB" p-id="19580"></path><path d="M630.272 849.92l-23.04 27.648c6.144-7.168 11.264-14.848 15.872-23.04l23.04-27.648c-4.608 8.192-9.728 15.872-15.872 23.04" fill="#B6A6A7" p-id="19581"></path><path d="M646.144 826.88l-23.04 27.648c5.12-8.192 9.216-16.896 12.8-25.6l23.04-27.648c-3.584 9.216-7.68 17.408-12.8 25.6" fill="#B6A6A7" p-id="19582"></path><path d="M659.456 801.28l-23.04 27.648c3.072-7.168 5.632-14.336 8.192-21.504 0.512-1.024 0.512-1.536 1.024-2.56l23.04-27.648c-0.512 1.024-0.512 1.536-1.024 2.56-2.56 7.68-5.12 14.848-8.192 21.504" fill="#B6A6A7" p-id="19583"></path><path d="M668.672 777.728l-23.04 27.648c0.512-1.024 0.512-1.536 1.024-2.56l23.04-27.648c-0.512 1.024-0.512 1.536-1.024 2.56" fill="#B6A6A7" p-id="19584"></path><path d="M669.696 775.168l-23.04 27.648c0.512-0.512 0.512-1.024 1.024-1.536l23.04-27.648c0 0.512-0.512 1.024-1.024 1.536" fill="#B6A6A7" p-id="19585"></path><path d="M324.608 515.072c-0.512 0.512-1.024 0.512-1.024 1.024-1.024 1.024-1.536 1.536-2.56 2.048-0.512 0.512-1.024 1.024-1.536 1.024-1.024 0.512-1.536 1.024-2.56 1.536-0.512 0.512-1.024 0.512-2.048 1.024s-1.536 1.024-2.56 1.536c-0.512 0-0.512 0.512-1.024 0.512-1.024 0.512-2.56 1.024-3.584 1.536-1.536 0.512-2.56 1.024-4.096 1.024h-0.512c-1.024 0.512-2.56 0.512-3.584 0.512h-4.608c-1.024 0-2.048 0-2.56-0.512-0.512 0-0.512 0-1.024-0.512-0.512 0-0.512-0.512-1.024-0.512s-1.024-0.512-1.024-1.024l-1.536-1.536-0.512-0.512c-0.512-0.512-1.024-1.024-1.024-1.536 0-0.512-0.512-0.512-0.512-1.024s0-0.512-0.512-1.024l-5.12-52.736c-1.024-17.92-2.56-35.84-3.584-53.76-1.024-27.136-1.536-54.784-3.072-81.92v-1.536-2.048-3.072-1.536-0.512-1.024-0.512-0.512c0-0.512-0.512-0.512-0.512-0.512l-0.512-0.512-0.512-0.512-0.512-0.512-0.512-0.512s-0.512 0-0.512-0.512h-0.512-0.512-0.512-1.024H266.24h-0.512-0.512-0.512-0.512c-0.512 0.512-1.024 0.512-1.536 1.024l-23.04 27.648c0.512-0.512 1.024-1.024 1.536-1.024l0.512-0.512c0.512 0 1.024-0.512 1.536-0.512h2.048c1.024 0 2.048 0.512 2.56 0.512 0.512 0.512 1.024 0.512 1.536 1.024l0.512 0.512c0.512 0.512 0.512 1.024 1.024 1.536 0 0.512 0.512 1.536 0.512 2.048v8.192c1.536 27.136 2.048 54.784 3.072 81.92 1.024 17.92 2.048 35.84 3.584 53.76l5.12 52.736V546.816c0 0.512 0.512 0.512 0.512 1.024 0.512 0.512 0.512 1.024 1.024 1.536l0.512 0.512 1.536 1.536c0.512 0.512 1.024 0.512 1.024 1.024l0.512 0.512h10.752c0.512 0 1.536-0.512 2.048-0.512h0.512c1.024-0.512 2.56-0.512 3.584-1.024h0.512c1.024-0.512 2.56-1.024 3.584-1.536 0.512 0 0.512 0 1.024-0.512 1.024-0.512 1.536-1.024 2.56-1.536 0.512-0.512 1.024-0.512 2.048-1.024s1.536-1.024 2.56-1.536c0.512-0.512 1.024-0.512 1.536-1.024 1.024-0.512 1.536-1.536 2.56-2.048 0.512-0.512 1.024-0.512 1.024-1.024l3.584-3.584 23.04-27.648c-2.048 2.56-3.584 3.584-4.608 5.12z" fill="#CDB9BB" p-id="19586"></path><path d="M722.944 655.36l-23.04 27.648c-9.216 11.264-19.968 21.504-32.256 31.744l23.04-27.648c12.8-10.24 23.04-20.48 32.256-31.744" fill="#CDB9BB" p-id="19587"></path><path d="M365.056 477.696V476.16v-3.584-1.536-5.632-2.048-4.608-2.56V450.56v-1.536-5.632-2.56-7.68-1.536V424.96v-2.56-6.144-3.072-8.192-1.536-7.168-2.56-6.144-3.072-7.168-2.048-8.704-2.048-6.656-3.072V348.16v-2.048V337.92v-1.536-6.656-2.048-5.632-2.048-6.656-0.512-6.144-1.024-1.024-5.632-0.512-5.632-1.024-4.608-0.512-3.584-0.512-2.56-0.512-0.512-2.048-0.512-1.024-0.512l-3.072-16.384c-0.512-5.12-1.536-10.24-2.048-14.848v-1.024-1.024c-0.512-3.072-1.024-6.144-2.048-9.216v-0.512-0.512l-0.512-0.512-0.512-0.512c-0.512-0.512-0.512-1.024-1.024-1.024l-0.512-0.512-1.536-1.536-1.536-1.536-23.04 25.088 1.536 1.536 1.536 1.536 0.512 0.512c0.512 0.512 0.512 1.024 1.024 1.024l0.512 0.512c0.512 0.512 0.512 1.024 1.024 1.536 0.512 3.072 1.536 6.144 2.048 9.216 0 0.512 0 1.024 0.512 2.048 1.024 5.12 1.536 10.24 2.048 14.848l3.072 16.384c0 0.512 0 1.024 0.512 1.536v0.512c0 0.512 0 1.536 0.512 2.56v117.248c0 6.144 0 11.776-0.512 17.92V521.216c-0.512 3.072-1.536 6.144-2.56 9.216 0 1.024-0.512 1.536-0.512 2.56-0.512 2.56-1.536 5.632-2.56 8.192 0 0.512-0.512 1.024-0.512 1.536-0.512 1.024-0.512 1.536-1.024 2.56-0.512 1.536-1.024 3.072-1.536 4.096-0.512 1.024-0.512 2.048-1.024 2.56-0.512 1.536-1.024 2.56-1.536 4.096-0.512 0.512-0.512 1.536-1.024 2.048-0.512 1.536-1.536 2.56-2.048 4.096-0.512 0.512-0.512 1.536-1.024 2.048-1.024 1.536-1.536 2.56-2.56 4.096-0.512 0.512-1.024 1.024-1.024 2.048-1.536 2.048-2.56 3.584-4.096 5.632l23.04-27.648c1.536-1.536 3.072-3.584 4.096-5.632 0.512-0.512 1.024-1.024 1.024-2.048 0.512-1.024 1.024-1.536 1.536-2.56 0.512-0.512 0.512-1.024 0.512-1.536 0.512-0.512 0.512-1.536 1.024-2.048 0.512-1.536 1.536-2.56 2.048-4.096 0.512-0.512 0.512-1.536 1.024-2.048 0-0.512 0.512-0.512 0.512-1.024 0.512-1.024 1.024-2.048 1.024-3.072 0.512-1.024 0.512-2.048 1.024-2.56l1.536-4.608c0.512-1.024 0.512-1.536 1.024-2.56v-0.512c0-0.512 0-1.024 0.512-1.536 1.024-2.56 1.536-5.12 2.56-8.192 0-1.024 0.512-1.536 0.512-2.56 1.024-3.072 1.536-6.144 2.56-9.216V486.4v-2.56c-1.024-0.512-1.024-3.584-1.024-6.144zM543.744 468.48l0.512 0.512c0.512 0 1.024 0.512 1.536 0.512 0.512 0.512 1.536 1.024 2.56 1.536l23.04-27.648c-1.024-0.512-1.536-1.024-2.56-1.536-0.512-0.512-1.024-0.512-1.536-0.512-0.512 0-0.512-0.512-0.512-0.512-0.512 0-0.512-0.512-1.024-0.512 0 0-0.512 0-0.512-0.512-0.512 0-0.512-0.512-1.024-0.512-3.584-4.096-7.68-7.68-11.264-12.288-1.536-2.56-3.584-4.608-5.12-7.168-2.048-3.584-4.608-6.656-6.144-10.24-0.512-1.024-1.024-1.536-1.536-2.56-1.536-3.072-3.072-5.632-4.608-8.704l-1.536-3.072c-1.024-1.536-1.536-3.584-2.56-5.632-0.512-1.024-1.024-2.56-1.536-3.584-1.024-2.048-1.536-4.096-2.048-6.144-0.512-1.024-1.024-2.048-1.024-3.072-0.512-1.536-1.024-3.584-1.536-5.632-0.512-1.024-0.512-2.56-1.024-3.584l-1.536-6.144c-0.512-1.024-0.512-2.048-1.024-3.072-1.024-3.072-1.536-6.144-2.048-9.216 0-1.024-0.512-1.536-0.512-2.56-0.512-2.048-1.024-4.608-1.024-6.656 0-1.024-0.512-2.048-0.512-2.56-0.512-2.56-1.024-5.12-1.024-8.192 0-1.024-0.512-2.56-0.512-3.584-0.512-2.56-0.512-5.12-1.024-7.68 0-1.024 0-2.048-0.512-3.072-0.512-4.608-0.512-8.704-1.024-13.312v-2.56c0-4.608-0.512-9.216-0.512-13.824v-20.48L491.52 294.4v20.48c0 4.608 0 9.216 0.512 13.312v2.56c0 4.608 0.512 8.704 1.024 13.312V347.136c0 2.56 0.512 5.12 1.024 7.68 0 1.024 0.512 2.56 0.512 3.584 0.512 2.56 0.512 5.12 1.024 8.192 0 0.512 0 1.536 0.512 2.048v0.512c0.512 2.048 1.024 4.608 1.024 6.656 0 1.024 0.512 1.536 0.512 2.56 0.512 3.072 1.536 6.144 2.048 9.216 0 1.024 0.512 2.048 0.512 2.56l1.536 6.144c0.512 1.024 0.512 2.56 1.024 3.584 0.512 1.536 1.024 3.584 1.536 5.12v0.512c0.512 1.024 0.512 1.536 1.024 2.56 0.512 2.048 1.536 4.096 2.048 6.144 0.512 1.024 1.024 2.56 1.536 3.584 0.512 2.048 1.536 3.584 2.56 5.632 0 0.512 0.512 1.024 0.512 1.024 0.512 0.512 0.512 1.024 1.024 1.536 1.536 3.072 3.072 5.632 4.608 8.704 0.512 1.024 1.024 1.536 1.536 2.56 2.048 3.584 4.096 7.168 6.144 10.24 0 0 0 0.512 0.512 0.512 1.536 2.048 3.072 4.608 4.608 6.656 3.072 4.608 7.168 8.192 11.264 12.288l0.512 0.512s0.512 0 0.512 0.512c0.512 0.512 1.024 0.512 1.024 0.512z" fill="#CDB9BB" p-id="19588"></path><path d="M515.072 266.752L491.52 294.4l-3.584-3.584 23.04-27.648c1.536 0.512 2.56 2.56 4.096 3.584" fill="#D1D9DB" p-id="19589"></path><path d="M511.488 263.168l-23.04 27.648s-0.512 0-0.512-0.512l23.04-27.648 0.512 0.512M510.976 262.656l-23.04 27.648h-0.512l23.552-27.648c-0.512 0-0.512 0 0 0M510.464 262.656l-23.04 27.648 23.04-27.648" fill="#D1D9DB" p-id="19590"></path><path d="M510.464 262.656l-23.04 27.648 23.04-27.648c0-0.512 0-0.512 0 0M509.952 262.144l-23.04 27.648 23.04-27.648M509.952 262.144l-23.04 27.648 23.04-27.648M509.952 262.144l-23.04 27.648 23.04-27.648M509.952 262.144L486.4 289.792l23.552-27.648c-0.512 0 0 0 0 0M509.44 262.144L486.4 289.792l23.04-27.648M509.44 262.144L486.4 289.792h-0.512l23.552-27.648c-0.512 0 0 0 0 0" fill="#D1D9DB" p-id="19591"></path><path d="M508.928 262.656l-23.04 27.648h-0.512l23.552-27.648M508.416 262.656l-23.04 27.648s-0.512 0-0.512 0.512l23.04-27.648c0-0.512 0.512-0.512 0.512-0.512M507.904 262.656l-23.04 27.648c-1.024 0.512-2.048 1.024-2.56 2.048l23.04-27.648c0.512-0.512 1.536-1.536 2.56-2.048" fill="#D1D9DB" p-id="19592"></path><path d="M699.392 536.064c0-3.584 0-7.68-0.512-11.264 0-4.608-0.512-8.704-0.512-13.312v-18.944c-0.512-16.896-1.536-33.792-2.56-50.688V440.32c-1.024-11.264-2.048-22.528-3.072-34.304-0.512-7.68-1.536-14.848-2.048-22.528-1.536-18.944-3.584-37.888-5.632-57.344 0-1.536-0.512-2.56-0.512-3.584v-1.024-1.536-0.512-1.024-0.512c0-0.512 0-1.024-0.512-1.024 0 0 0-0.512-0.512-0.512 0-0.512-0.512-0.512-0.512-1.024l-0.512-0.512-0.512-0.512h-0.512s-0.512 0-0.512-0.512h-0.512-2.048H669.696c-0.512 0-0.512 0-1.024 0.512h-0.512c-1.024 0.512-2.048 0.512-2.56 1.024h-0.512c-0.512 0.512-1.024 0.512-1.536 1.024l-0.512 0.512c-0.512 0.512-1.024 1.024-1.536 1.024l-23.04 27.648c0.512-0.512 1.024-1.024 1.536-1.024l0.512-0.512c0.512-0.512 1.024-0.512 1.536-1.024 0 0 0.512 0 1.024-0.512 1.024-0.512 1.536-0.512 2.56-1.024 0.512 0 1.024-0.512 1.536-0.512H655.872c1.024 0 1.536 0.512 2.048 0.512 0.512 0 1.024 0.512 1.536 1.024 0.512 0 0.512 0.512 1.024 1.024l0.512 0.512c0.512 0.512 0.512 1.024 1.024 1.536 0 0.512 0.512 1.536 0.512 2.048v1.024c0 0.512 0 1.536 0.512 2.048v1.024c0 1.024 0.512 2.56 0.512 3.584 2.048 18.944 3.584 37.888 5.632 57.344 0.512 6.656 1.024 13.824 2.048 20.48 1.024 12.288 2.048 24.576 3.072 37.376 1.536 16.896 2.048 33.792 2.56 50.688v18.944c0 4.608 0.512 8.704 0.512 13.312 0 3.584 0.512 7.68 0.512 11.264v9.216c-1.024 20.992-2.56 41.984-4.096 62.976-1.536 23.552-3.072 47.104-4.608 71.168v7.68l23.04-27.648v-2.56-1.536-1.024-1.024-0.512-1.536c1.536-23.552 3.072-47.104 4.608-71.168 0.512-5.632 0.512-10.752 1.024-16.384 1.024-15.36 2.048-31.232 3.072-46.592v-8.704c-1.536-0.512-1.536-0.512-1.536-1.024 0 0.512 0 0 0 0z" fill="#CDB9BB" p-id="19593"></path><path d="M661.504 467.968c-0.512 0.512-1.024 0.512-1.536 1.024H658.432c-1.536 0-3.584 0-5.12 0.512-2.56 0-5.12 0.512-7.168 0.512h-9.216c-1.536 0-3.584-0.512-5.12-0.512-2.048 0-3.584-0.512-5.632-0.512-1.024 0-2.56-0.512-3.584-0.512-1.536-0.512-3.072-0.512-5.12-1.024-1.536-0.512-2.56-0.512-4.096-1.024-1.536-0.512-3.072-1.024-5.12-1.536-2.048-0.512-3.584-1.024-5.632-1.536-0.512 0-1.024-0.512-1.536-0.512h-0.512c-0.512 0-0.512-0.512-1.024-0.512 0 0-0.512 0-0.512-0.512l-0.512-0.512-1.024-1.024c0-0.512-0.512-0.512-0.512-1.024s-0.512-1.024-0.512-1.024v-1.536c0-0.512 0-1.024 0.512-1.536 0-0.512 0.512-1.024 0.512-2.048 0.512-1.536 1.536-3.072 2.048-5.12 1.024-2.048 1.536-4.096 2.56-6.144v-0.512c0.512-1.536 1.536-3.584 2.048-5.632V435.2c0.512-1.536 1.024-3.072 1.536-5.12 0.512-2.56 1.536-5.632 2.048-8.192 0.512-3.072 1.536-6.144 2.048-9.216 0-1.024 0.512-2.048 0.512-3.072 0.512-2.048 0.512-4.608 1.024-6.656 0-0.512 0-1.024 0.512-1.536v-1.536c0.512-3.072 1.024-6.656 1.024-9.728V389.12c0.512-3.584 0.512-7.168 1.024-10.752v-1.024-1.024c0.512-4.608 0.512-9.216 0.512-14.336v-2.048-14.336-0.512-0.512c0-7.68-0.512-15.36-0.512-23.552v-0.512c-0.512-8.192-1.024-15.872-1.536-24.064l-2.048-27.136c-0.512-3.584-0.512-7.68-1.024-11.264V256v-2.56c-0.512-4.608-1.024-8.704-1.536-13.312-4.608-33.28-9.216-66.048-14.336-99.328l-23.04 27.648c4.608 33.28 9.728 66.048 14.336 99.328 0.512 4.608 1.024 8.704 1.536 13.312v2.56c0.512 4.608 0.512 8.704 1.024 13.312l2.048 27.136c0.512 8.192 1.024 15.872 1.536 24.064v0.512c0.512 7.68 0.512 15.872 0.512 23.552v17.408c0 4.608-0.512 9.216-0.512 14.336v2.56c0 3.584-0.512 7.168-1.024 10.752v1.024c-0.512 3.072-0.512 6.656-1.024 9.728 0 1.024-0.512 2.048-0.512 3.072-0.512 2.048-0.512 4.608-1.024 6.656 0 1.024-0.512 2.048-0.512 3.072-0.512 3.072-1.024 6.144-2.048 9.216-0.512 2.56-1.536 5.632-2.048 8.192-0.512 2.048-1.024 3.584-1.536 5.12-0.512 2.048-1.024 3.584-2.048 5.632v0.512c-1.024 2.048-1.536 4.096-2.56 6.144-0.512 1.536-1.536 3.584-2.56 5.12v0.512c0 0.512-0.512 1.024-0.512 1.536 0 0.512 0 0.512-0.512 1.024v3.584s0 0.512 0.512 0.512c0 0.512 0.512 0.512 1.024 1.024 0 0 0.512 0 0.512 0.512l0.512 0.512H577.024c0.512 0 0.512 0.512 1.024 0.512 1.024 0.512 2.048 0.512 3.072 1.024 1.024 0 1.536 0.512 2.56 0.512 1.536 0.512 3.072 1.024 5.12 1.536 0.512 0 1.024 0.512 1.536 0.512 0.512 0 1.536 0 2.048 0.512 1.536 0.512 3.072 0.512 5.12 1.024 0.512 0 1.536 0.512 2.048 0.512h1.536c2.048 0 3.584 0.512 5.632 0.512H620.544c2.56 0 5.12 0 7.168-0.512h5.632c0.512 0 0.512-0.512 1.024-0.512l0.512-0.512c0.512-0.512 1.024-0.512 1.024-1.024l23.04-27.648c3.584 0.512 3.072 1.024 2.56 1.536z" fill="#CDB9BB" p-id="19594"></path><path d="M595.456 141.312l-23.04 27.648c-3.072 0-6.144-0.512-9.728-0.512l23.04-27.648c3.584 0 6.656 0.512 9.728 0.512" fill="#D1D9DB" p-id="19595"></path><path d="M794.624 569.856c0-4.096 0-8.192 0.512-11.776v-6.144-12.288-5.632-36.352c-0.512-28.672-1.536-57.344-2.56-86.016-1.024-23.04-2.56-46.08-4.096-68.608-1.024-15.36-1.536-30.72-2.56-47.104l1.024-6.656c-0.512-0.512-0.512-1.024-0.512-1.536v-0.512l-0.512-0.512s0-0.512-0.512-0.512v-0.512-0.512-0.512-0.512-0.512-1.024-0.512-2.048c0-4.096-0.512-8.704-1.024-12.8v-0.512c0-2.048-0.512-4.096-0.512-5.632-0.512-3.072-0.512-6.144-1.024-8.704-0.512-3.072-0.512-6.144-1.024-9.216-0.512-3.584-0.512-7.168-1.024-10.752v-0.512-1.024-0.512-0.512-0.512c0-0.512 0-0.512-0.512-1.024v-0.512-0.512c0-0.512-0.512-0.512-0.512-1.024-0.512-0.512-0.512-1.024-1.024-1.024l-0.512-0.512h-0.512-0.512-0.512-2.048H767.488h-0.512-0.512-0.512-0.512c-0.512 0-0.512 0.512-1.024 0.512l-23.04 27.648c0-0.512 0.512-0.512 1.024-0.512 0 0 0.512 0 0.512-0.512H752.64c0.512 0 1.024 0 1.024 0.512 0.512 0 1.024 0.512 1.024 0.512 0.512 0 0.512 0.512 1.024 0.512 0.512 0.512 1.024 0.512 1.024 1.024s0.512 1.024 0.512 1.024c0 0.512 0.512 1.024 0.512 1.536v0.512c0 0.512 0 1.536 0.512 2.048 0 3.072 0.512 6.144 0.512 9.216v2.048c0.512 3.072 0.512 6.144 1.024 9.216 0.512 3.072 0.512 6.144 1.024 8.704 0 2.048 0.512 4.096 0.512 6.144 0.512 4.096 0.512 8.704 1.024 12.8v6.656s0 0.512 0.512 0.512c0 0 0 0.512 0.512 0.512v0.512c0 0.512 0.512 1.024 0.512 1.536l-1.024 6.656c1.024 16.896 1.536 31.744 2.56 47.104 1.536 23.04 3.072 46.08 4.096 68.608 1.024 28.672 2.048 57.344 2.56 86.016V586.752c0 4.096 0 8.192-0.512 11.776v5.632c0 5.632-0.512 11.264-1.024 16.896v1.536c-0.512 4.608-0.512 9.728-1.024 14.336 0 1.536-0.512 3.584-0.512 5.12l-1.536 10.752c-0.512 4.096-1.024 8.192-2.048 12.288-0.512 1.536-0.512 3.584-1.024 5.12-0.512 1.024-0.512 2.048-1.024 3.072-0.512 1.024-0.512 2.048-1.024 3.072l-1.536 4.608c-0.512 1.024-0.512 1.536-1.024 2.56-0.512 0.512-0.512 1.536-1.024 2.048l-1.536 3.072c-0.512 0.512-0.512 1.536-1.024 2.048-0.512 1.024-1.024 1.536-1.536 2.048-1.536 2.56-3.584 5.12-5.12 8.192-0.512 0.512-0.512 1.024-1.024 1.024l-6.144 7.68 23.04-27.648 6.144-7.68c0.512-0.512 0.512-1.024 1.024-1.024 2.048-2.56 3.584-5.12 5.12-8.192 0-0.512 0.512-0.512 0.512-1.024 0.512-0.512 0.512-1.024 1.024-1.536 0.512-0.512 1.024-1.536 1.024-2.048l1.536-3.072c0.512-0.512 0.512-1.536 1.024-2.048 0-0.512 0.512-0.512 0.512-1.024s0.512-1.024 0.512-1.536l1.536-4.608c0-0.512 0.512-1.024 0.512-1.024 0-0.512 0.512-1.024 0.512-1.536 0.512-1.024 0.512-2.048 1.024-3.072 0-0.512 0.512-1.024 0.512-1.536 0.512-1.024 0.512-2.56 0.512-3.584 0.512-3.072 1.024-6.656 1.536-9.728 0-0.512 0-1.536 0.512-2.048l1.536-10.752c0-1.536 0.512-3.584 0.512-5.12 0.512-4.608 1.024-9.728 1.024-14.336v-1.536c0.512-5.632 0.512-11.264 1.024-16.896v-7.168z" fill="#CDB9BB" p-id="19596"></path><path d="M236.544 358.912c0.512-5.632-1.536-14.848 7.168-14.336 8.704 0.512 6.144 9.728 6.144 14.848 1.536 27.136 2.048 54.784 3.072 81.92 1.024 17.92 2.048 35.84 3.584 53.76l5.12 52.736c0.512 2.56 4.608 6.144 7.168 6.656 1.024 0 2.048 0 2.56 0.512 21.504 1.024 44.544-21.504 43.52-44.544l4.608-11.264c12.288-61.952 14.336-124.928 13.824-188.416 0-1.024 1.024-18.432-1.536-19.968-2.048-11.776-4.096-22.016-5.12-32.256-0.512-2.56 1.024-5.632 2.048-8.192 2.048 2.56 5.632 4.608 6.144 7.168 2.048 8.704 3.072 17.408 4.096 26.112l3.072 16.384c4.096 12.8-1.024 210.944-1.024 221.184-6.144 24.064-12.8 48.128-32.768 64-10.752 8.192-24.064 13.312-38.4 20.48 3.584 15.872 11.264 32.768 24.064 47.104 19.968 22.528 46.592 34.304 72.704 46.592 41.472 19.456 81.408 41.472 113.152 75.264 16.384 17.408 27.648 37.888 36.352 59.392 1.024 2.048 1.536 4.096 2.56 6.144 0.512 1.024 1.536 2.048 3.072 5.12 10.24-7.68 20.992-14.336 30.208-23.04 45.056-40.96 73.728-92.16 83.456-153.088 3.072-17.92 3.584-35.84 4.608-54.272 1.024-19.968 1.536-39.936 2.56-60.416 0.512-7.168-1.024-10.752-8.704-11.264h-17.408c-18.432-1.024-36.352-5.12-51.2-16.896-38.912-30.72-73.728-81.92-83.456-177.664-1.024-11.776-1.024-23.04-1.536-34.816l0.512-22.016c0.512-1.536 3.584-3.584 5.12-3.584 1.536 0 3.584 3.072 5.12 4.096v20.48c0.512 49.664 8.192 97.792 39.424 140.288 3.072 4.608 7.168 8.192 11.264 12.288 1.024 1.024 2.56 1.536 6.656 4.096 5.12-20.992 11.264-40.448 14.336-60.416 4.096-28.16 6.656-56.32 9.216-84.48l0.512-28.672c0-3.072 0.512-6.144 0-9.216-3.072-39.936-6.656-79.872-9.728-119.808 3.072 0 6.144 0.512 9.728 0.512 4.608 33.28 9.728 66.048 14.336 99.328 1.536 9.728 2.048 19.456 2.56 29.184l2.048 27.136c3.072 45.056 4.608 90.112-7.168 133.632-2.048 7.68-5.12 15.36-8.704 22.528-2.56 5.632-1.024 8.192 4.096 9.728 11.264 3.584 22.016 5.632 33.28 6.144 7.168 0.512 14.848 0 22.016-0.512 2.56 0 6.144-5.12 6.144-8.192 0-22.528-0.512-45.056-1.536-68.096-1.024-25.088-3.584-50.176-4.608-75.264 0-2.048 3.584-4.608 9.216-6.656h5.632c9.216 0.512 10.24 2.56 11.264 14.848 4.096 38.4 7.168 76.8 10.752 114.688 1.536 16.896 2.048 33.792 2.56 50.688v18.944c0.512 11.264 1.536 22.528 1.024 33.792-2.56 44.544-5.632 89.088-8.704 134.144 0 1.536 0 3.584 0.512 7.68 19.968-15.872 34.816-33.792 48.128-52.736 14.848-21.504 23.552-45.056 22.528-72.704-0.512-15.36 1.024-30.72 2.048-46.08 0-1.024 0.512-22.528 0.512-23.552l1.536-214.016c-1.024-14.848-1.536-30.208-2.048-45.056 0-4.096-2.56-9.728 4.608-9.216h5.632c4.096 0 7.168 1.536 7.68 8.192 1.024 15.872 3.072 32.256 4.096 48.128 0.512 6.656 0 4.096 2.56 9.216l-1.024 6.656c1.024 16.896 1.536 31.744 2.56 47.104 1.536 23.04 3.072 46.08 4.096 68.608 1.024 28.672 2.048 57.344 2.56 86.016v20.992c-0.512 39.424 0 79.36-6.656 118.272-4.096 23.04-17.92 39.424-32.256 55.296-23.04 25.088-47.616 49.664-71.68 73.728-3.072 3.072-8.192 4.096-11.776 7.168-2.048 1.536-3.584 5.12-4.608 7.68-9.216 25.6-20.48 50.176-38.4 70.656-15.872 18.432-34.816 33.792-59.392 39.936-6.656 1.536-8.704 4.608-7.68 11.776 2.56 23.04 4.096 46.08 5.632 68.608-23.552-1.024-47.104-2.56-70.656-3.584-1.024-24.064-1.024-47.616-3.072-71.68-2.56-30.208-8.704-59.392-23.552-86.528-18.944-35.328-47.616-60.928-80.896-82.432-29.696-18.944-59.904-36.864-88.576-56.832-22.016-15.872-41.984-35.328-45.568-64-2.048-14.848-3.072-29.696-3.584-44.544-0.512-24.576-1.024-49.152-0.512-73.728l0.512-19.968c1.536-43.008 4.096-88.064 6.656-133.632z" fill="#A1747E" p-id="19597"></path><path d="M252.928 292.352s-66.048-23.552-75.776 46.592c-9.728 70.144-12.288 110.592-12.288 110.592l73.728-47.104s82.944-48.128 23.552-104.96L281.6 266.24l-9.728-5.12-18.944 31.232z" fill="#78BF46" p-id="19598"></path><path d="M164.864 450.048l73.728-47.104s82.944-48.128 23.552-104.96l19.456-31.232-4.608-2.048-112.128 185.344z" fill="#509334" p-id="19599"></path><path d="M234.496 289.28s32.256 7.68 34.816 51.2c2.56 44.032-103.424 109.056-103.424 109.056s99.328-53.248 114.176-83.456c15.36-30.208-7.168-58.368-11.264-62.464-4.096-4.608-19.456-16.896-34.304-14.336z" fill="#427432" p-id="19600"></path><path d="M590.336 185.856s-66.048-23.552-75.776 46.592C504.832 302.592 502.272 343.04 502.272 343.04l73.728-47.104s82.944-48.128 23.552-104.96l19.456-31.232-9.728-5.12-18.944 31.232z" fill="#78BF46" p-id="19601"></path><path d="M502.272 343.552l73.728-47.104s82.944-48.128 23.552-104.96l19.456-31.232-4.608-2.048-112.128 185.344z" fill="#509334" p-id="19602"></path><path d="M572.416 182.784s32.256 7.68 34.816 51.2c2.56 44.032-103.424 109.056-103.424 109.056s99.328-53.248 114.176-83.456-7.168-58.368-11.264-62.464c-4.608-4.608-19.968-16.896-34.304-14.336z" fill="#427432" p-id="19603"></path><path d="M749.568 246.784s66.048-23.552 75.776 46.592 12.288 110.592 12.288 110.592l-73.728-47.104s-82.944-48.128-23.552-104.96l-19.456-31.232 9.728-5.12 18.944 31.232z" fill="#78BF46" p-id="19604"></path><path d="M837.12 403.968l-73.728-47.104s-82.944-48.128-23.552-104.96l-19.456-31.232 4.608-2.048 112.128 185.344z" fill="#509334" p-id="19605"></path><path d="M767.488 243.2s-32.256 7.68-34.816 51.2c-2.56 44.032 103.424 109.056 103.424 109.056S737.28 350.208 721.92 320s7.168-58.368 11.264-62.464c4.096-4.096 19.968-16.896 34.304-14.336z" fill="#427432" p-id="19606"></path></svg>