<?xml version="1.0" standalone="no"?><!DOCTYPE svg PUBLIC "-//W3C//DTD SVG 1.1//EN" "http://www.w3.org/Graphics/SVG/1.1/DTD/svg11.dtd"><svg t="1547469459465" class="icon" style="" viewBox="0 0 1024 1024" version="1.1" xmlns="http://www.w3.org/2000/svg" p-id="5282" xmlns:xlink="http://www.w3.org/1999/xlink" width="200" height="200"><defs><style type="text/css"></style></defs><path d="M169 718.2c-9.6 7.4-2.6 2.1-0.3 0.5 3.8-2.6 7.7-5.1 11.7-7.5 5.9-3.5 12-6.7 18.2-9.7 3.5-1.7 7.1-3.3 10.7-4.9-7.9 3.4-0.5 0.3 1.3-0.5l7.2-2.7c9.2-3.3 18.7-5.9 28.3-7.9 2.4-0.5 4.9-1 7.4-1.4 1.2-0.2 2.5-0.4 3.8-0.6 4.8-0.7-5.8 0.7-1 0.1 5.6-0.7 11.3-1.1 17-1.3 5.4-0.2 10.9 0 16.3 0.3 2.8 0.2 5.6 0.4 8.3 0.8 5.1 0.6-5.6-0.8-0.5-0.1 1.9 0.3 3.8 0.6 5.7 1 5.8 1.1 11.6 2.5 17.2 4.2 2.9 0.9 5.8 1.9 8.7 2.9 1.5 0.5 2.9 1.1 4.4 1.7 1 0.4 1.9 0.8 2.9 1.2-3-1.3-3.4-1.4-1.1-0.4 7.1 3.1 13.9 6.9 20.6 10.9 3.5 2.1 6.9 4.4 10.3 6.8 2 1.4 3.9 2.9 5.9 4.3-4.5-3.4 1.9 1.6 2.7 2.3 9.6 8 23 9.5 32.5 0 8.2-8.2 9.7-24.5 0-32.5-23.8-19.7-50.4-35-80.4-43-23.7-6.3-48.8-7.7-73.1-4.6-36.3 4.8-71.4 17.4-102.4 37.1-5.1 3.2-9.9 6.8-14.7 10.5-9.9 7.7-8 24.5 0 32.5 4.3 4.3 10.1 6.7 16.2 6.7 6.7 0 11.2-2.8 16.2-6.7z m0 0" fill="#3ABBE1" p-id="5283"></path><path d="M407.2 718.2c-9.6 7.4-2.6 2.1-0.3 0.5 3.8-2.6 7.7-5.1 11.7-7.5 5.9-3.5 12-6.7 18.2-9.7 3.5-1.7 7.1-3.3 10.7-4.9-7.9 3.4-0.5 0.3 1.3-0.5l7.2-2.7c9.2-3.3 18.7-5.9 28.3-7.9 2.4-0.5 4.9-1 7.4-1.4 1.2-0.2 2.5-0.4 3.8-0.6 4.8-0.7-5.8 0.7-1 0.1 5.6-0.7 11.3-1.1 17-1.3 5.4-0.2 10.9 0 16.3 0.3 2.8 0.2 5.6 0.4 8.3 0.8 5.1 0.6-5.6-0.8-0.5-0.1 1.9 0.3 3.8 0.6 5.7 1 5.8 1.1 11.6 2.5 17.2 4.2 2.9 0.9 5.8 1.9 8.7 2.9 1.5 0.5 2.9 1.1 4.4 1.7 1 0.4 2 0.8 2.9 1.2-3-1.3-3.4-1.4-1.1-0.4 7.1 3.1 14 6.9 20.6 10.9 3.5 2.1 6.9 4.4 10.3 6.8 2 1.4 3.9 2.9 5.9 4.3-4.5-3.4 1.9 1.6 2.7 2.3 9.6 8 23 9.5 32.5 0 8.2-8.2 9.7-24.5 0-32.5-23.8-19.7-50.4-35-80.4-43-23.7-6.3-48.8-7.7-73.1-4.6-36.3 4.8-71.4 17.4-102.4 37.1-5.1 3.2-9.9 6.8-14.7 10.5-9.9 7.7-8 24.5 0 32.5 4.3 4.3 10.1 6.7 16.2 6.7 6.7 0 11.1-2.8 16.2-6.7z m0 0" fill="#3ABBE1" p-id="5284"></path><path d="M645.4 718.2c-9.6 7.4-2.6 2.1-0.3 0.5 3.8-2.6 7.7-5.1 11.7-7.5 5.9-3.5 12-6.7 18.2-9.7 3.5-1.7 7.1-3.3 10.7-4.9-7.9 3.4-0.5 0.3 1.3-0.5l7.2-2.7c9.2-3.3 18.7-5.9 28.3-7.9 2.4-0.5 4.9-1 7.4-1.4 1.2-0.2 2.5-0.4 3.8-0.6 4.8-0.7-5.8 0.7-1 0.1 5.6-0.7 11.3-1.1 17-1.3 5.4-0.2 10.9 0 16.3 0.3 2.8 0.2 5.6 0.4 8.3 0.8 5.1 0.6-5.6-0.8-0.5-0.1 1.9 0.3 3.8 0.6 5.7 1 5.8 1.1 11.6 2.5 17.2 4.2 2.9 0.9 5.8 1.9 8.7 2.9 1.5 0.5 2.9 1.1 4.4 1.7 1 0.4 1.9 0.8 2.9 1.2-3-1.3-3.4-1.4-1.1-0.4 7.1 3.1 14 6.9 20.6 10.9 3.5 2.1 6.9 4.4 10.3 6.8 2 1.4 3.9 2.9 5.9 4.3-4.5-3.4 1.9 1.6 2.7 2.3 9.6 8 23 9.5 32.5 0 8.2-8.2 9.7-24.5 0-32.5-23.8-19.7-50.4-35-80.4-43-23.7-6.3-48.8-7.7-73.1-4.6-36.3 4.8-71.4 17.4-102.4 37.1-5.1 3.2-9.9 6.8-14.7 10.5-9.9 7.7-8 24.5 0 32.5 4.3 4.3 10.1 6.7 16.2 6.7 6.6 0 11.1-2.8 16.2-6.7zM169.5 871.5c-9.6 7.4-2.6 2.1-0.3 0.5 3.8-2.6 7.7-5.1 11.7-7.5 5.9-3.5 12-6.7 18.2-9.7 3.5-1.7 7.1-3.3 10.7-4.9-7.9 3.4-0.5 0.3 1.3-0.5l7.2-2.7c9.2-3.3 18.7-5.9 28.3-7.9 2.4-0.5 4.9-1 7.4-1.4 1.2-0.2 2.5-0.4 3.8-0.6 4.8-0.7-5.8 0.7-1 0.1 5.6-0.7 11.3-1.1 17-1.3 5.4-0.2 10.9 0 16.3 0.3 2.8 0.2 5.6 0.4 8.3 0.8 5.1 0.6-5.6-0.8-0.5-0.1 1.9 0.3 3.8 0.6 5.7 1 5.8 1.1 11.6 2.5 17.2 4.2 2.9 0.9 5.8 1.9 8.7 2.9 1.5 0.5 2.9 1.1 4.4 1.7 1 0.4 2 0.8 2.9 1.2-3-1.3-3.4-1.4-1.1-0.4 7.1 3.1 14 6.9 20.6 10.9 3.5 2.1 6.9 4.4 10.3 6.8 2 1.4 3.9 2.9 5.9 4.3-4.5-3.4 1.9 1.6 2.7 2.3 9.6 8 23 9.5 32.5 0 8.2-8.2 9.7-24.5 0-32.5-23.8-19.7-50.4-35-80.4-43-23.7-6.3-48.8-7.7-73.1-4.6-36.3 4.8-71.4 17.5-102.4 37.1-5.1 3.2-9.9 6.8-14.7 10.5-9.9 7.7-8 24.5 0 32.5 4.3 4.3 10.1 6.7 16.2 6.7 6.7 0.1 11.2-2.7 16.2-6.7z m0 0" fill="#3ABBE1" p-id="5285"></path><path d="M407.7 871.5c-9.6 7.4-2.6 2.1-0.3 0.5 3.8-2.6 7.7-5.1 11.7-7.5 5.9-3.5 12-6.7 18.2-9.7 3.5-1.7 7.1-3.3 10.7-4.9-7.9 3.4-0.5 0.3 1.3-0.5l7.2-2.7c9.2-3.3 18.7-5.9 28.3-7.9 2.4-0.5 4.9-1 7.4-1.4 1.2-0.2 2.5-0.4 3.8-0.6 4.8-0.7-5.8 0.7-1 0.1 5.6-0.7 11.3-1.1 17-1.3 5.4-0.2 10.9 0 16.3 0.3 2.8 0.2 5.6 0.4 8.3 0.8 5.1 0.6-5.6-0.8-0.5-0.1 1.9 0.3 3.8 0.6 5.7 1 5.8 1.1 11.6 2.5 17.2 4.2 2.9 0.9 5.8 1.9 8.7 2.9 1.5 0.5 2.9 1.1 4.4 1.7 1 0.4 2 0.8 2.9 1.2-3-1.3-3.4-1.4-1.1-0.4 7.1 3.1 13.9 6.9 20.6 10.9 3.5 2.1 6.9 4.4 10.3 6.8 2 1.4 3.9 2.9 5.9 4.3-4.5-3.4 1.9 1.6 2.7 2.3 9.6 8 23 9.5 32.5 0 8.2-8.2 9.7-24.5 0-32.5-23.8-19.7-50.4-35-80.4-43-23.7-6.3-48.8-7.7-73.1-4.6-36.4 4.9-71.5 17.6-102.4 37.2-5.1 3.2-9.9 6.8-14.7 10.5-9.9 7.7-8 24.5 0 32.5 4.3 4.3 10.1 6.7 16.2 6.7 6.7 0 11.1-2.8 16.2-6.8z m0 0" fill="#3ABBE1" p-id="5286"></path><path d="M645.8 871.5c-9.6 7.4-2.6 2.1-0.3 0.5 3.8-2.6 7.7-5.1 11.7-7.5 5.9-3.5 12-6.7 18.2-9.7 3.5-1.7 7.1-3.3 10.7-4.9-7.9 3.4-0.5 0.3 1.3-0.5l7.2-2.7c9.2-3.3 18.7-5.9 28.3-7.9 2.4-0.5 4.9-1 7.4-1.4 1.2-0.2 2.5-0.4 3.8-0.6 4.8-0.7-5.8 0.7-1 0.1 5.6-0.7 11.3-1.1 17-1.3 5.4-0.2 10.9 0 16.3 0.3 2.8 0.2 5.6 0.4 8.3 0.8 5.1 0.6-5.6-0.8-0.5-0.1 1.9 0.3 3.8 0.6 5.7 1 5.8 1.1 11.6 2.5 17.2 4.2 2.9 0.9 5.8 1.9 8.7 2.9 1.5 0.5 2.9 1.1 4.4 1.7 1 0.4 2 0.8 2.9 1.2-3-1.3-3.4-1.4-1.1-0.4 7.1 3.1 14 6.9 20.6 10.9 3.5 2.1 6.9 4.4 10.3 6.8 2 1.4 3.9 2.9 5.9 4.3-4.5-3.4 1.9 1.6 2.7 2.3 9.6 8 23 9.5 32.5 0 8.2-8.2 9.7-24.5 0-32.5-23.8-19.7-50.4-35-80.4-43-23.7-6.3-48.8-7.7-73.1-4.6-36.3 4.8-71.4 17.5-102.4 37.1-5.1 3.2-9.9 6.8-14.7 10.5-9.9 7.7-8 24.5 0 32.5 4.3 4.3 10.1 6.7 16.2 6.7 6.7 0.1 11.2-2.7 16.2-6.7zM87.9 342.4h47.9c12.5 0 22.9-10.4 22.9-22.9 0-12.5-10.4-22.9-22.9-22.9H87.9C75.4 296.6 65 307 65 319.5c0 12.5 10.4 22.9 22.9 22.9z m373.3 111.8H557c12.5 0 23-10.4 23-22.9 0-12.5-10.4-23-23-23h-95.8c-12.5 0-23 10.4-23 23 0 12.4 10.4 22.9 23 22.9zM135.8 190.7h594.7c12.5 0 22.9-10.4 22.9-23 0-12.5-10.4-22.9-22.9-22.9H135.8c-12.5 0-23 10.4-23 22.9 0.1 12.6 10.5 23 23 23z m0 0" fill="#3ABBE1" p-id="5287"></path><path d="M794.4 573.5c16.2 0 31.9 0.1 48-2.4 25-3.9 47.8-16 67.1-31.9 40.1-33 56.4-87.3 46.8-137.4-9.5-49.9-48.3-90.2-95.7-106.2-18.6-6.2-37.8-6.8-57.1-6.8H271.9c-12.5 0-23 10.4-23 22.9 0 12.5 10.4 23 23 23h544c2.3 0 4.6 0 6.8 0.1 2.8 0.1 5.5 0.4 8.2 0.7 5 0.6-5.7-0.8-0.7-0.1 1.3 0.2 2.7 0.5 4 0.7 5.7 1.1 11.3 2.7 16.8 4.6 1.3 0.4 2.5 0.9 3.7 1.4 4.5 1.8-5.1-2.2-0.6-0.3 2.4 1.1 4.8 2.2 7.1 3.5 5 2.6 9.8 5.7 14.4 9 1.2 0.9 4.9 3.8-0.5-0.4 1 0.8 2 1.6 3 2.5 2 1.7 3.9 3.4 5.8 5.2 1.9 1.8 3.7 3.7 5.4 5.6 0.9 1 1.7 1.9 2.6 2.9 1 1.2 4.9 6.2 0.5 0.4 3.2 4.1 6 8.5 8.6 13.1 1.3 2.3 2.5 4.6 3.7 7 0.6 1.2 1.1 2.4 1.7 3.6 1 2.2 0.7 1.6-0.8-1.8 0.3 0.8 0.7 1.6 1 2.5 1.9 5 3.4 10.1 4.7 15.3 0.6 2.6 1.1 5.3 1.6 8 0.8 5-0.7-5.7-0.1-0.7 0.2 1.8 0.4 3.6 0.5 5.5 0.4 5.6 0.4 11.1 0 16.7-0.1 1.9-1.4 11.4-0.2 3.4-0.4 3.1-1.1 6.2-1.8 9.3-1.2 5.2-2.8 10.3-4.7 15.3-0.5 1.4-2.4 5.9 0.3-0.6-0.5 1.2-1.1 2.4-1.6 3.6-1.3 2.8-2.7 5.5-4.2 8.1-1.5 2.7-3.1 5.2-4.8 7.8-1 1.4-2 2.9-3 4.3-1.4 1.9-1 1.4 1.2-1.5-0.5 0.7-1.1 1.3-1.6 2-4.4 5.4-9.3 10.3-14.6 14.8-1.2 1-6.2 4.9-0.4 0.5-1.4 1.1-2.8 2.1-4.2 3.1-2.9 2-5.8 3.8-8.8 5.6-3 1.8-6.2 3.3-9.3 4.8-0.8 0.4-1.6 0.7-2.4 1.1 3.5-1.4 4.1-1.7 1.8-0.8-1.6 0.7-3.3 1.2-5 1.8-6.3 2.2-12.9 3.8-19.5 4.9-4.1 0.7 5.9-0.6-0.7 0.1-1.8 0.2-3.7 0.3-5.5 0.4-2.5 0.2-5 0.2-7.4 0.2h-22.2c-12.5 0-23 10.4-23 23-0.2 12.2 10.2 22.6 22.7 22.6z m0 0" fill="#3ABBE1" p-id="5288"></path></svg>