<?xml version="1.0" standalone="no"?><!DOCTYPE svg PUBLIC "-//W3C//DTD SVG 1.1//EN" "http://www.w3.org/Graphics/SVG/1.1/DTD/svg11.dtd"><svg t="1547467775082" class="icon" style="" viewBox="0 0 1024 1024" version="1.1" xmlns="http://www.w3.org/2000/svg" p-id="18355" xmlns:xlink="http://www.w3.org/1999/xlink" width="200" height="200"><defs><style type="text/css"></style></defs><path d="M182.7 467.7s224.2-43.1 284.6-278.8c0 0-152.9-193.9-352.8-44.9 0-0.1-84.1 179.9 68.2 323.7z" fill="#FFAB47" p-id="18356"></path><path d="M182.7 489.9c-5.6 0-11.1-2.1-15.3-6.1-162.1-152.9-74-347.4-73.1-349.3 1.6-3.3 3.9-6.2 6.9-8.4C316-34 483.1 172.9 484.8 175c4.3 5.5 5.8 12.6 4.1 19.3C425.8 440.9 196.7 487.6 187 489.5c-1.5 0.3-2.9 0.4-4.3 0.4z m-50.2-331.6c-11.4 28.3-58.8 167.1 57 284.8 43.6-11.6 200.6-65.5 253.1-248.7-30.4-33.4-153.4-148.7-310.1-36.1zM448.4 734.7c-0.6 0-1.3 0-1.9-0.1-12.2-1-21.4-11.7-20.4-24 0.2-2.2 20.5-219.4 251.1-268.7 12-2.6 23.9 5.1 26.5 17.1 2.6 12-5.1 23.9-17.1 26.5-197.6 42.2-215.4 221.1-216 228.7-1 11.7-10.7 20.5-22.2 20.5zM585 749.1c-0.6 0-1.3 0-1.9-0.1-12.2-1.1-21.3-11.7-20.3-24 3.8-46.1 40.5-139.7 152.5-163.7 12-2.6 23.9 5.1 26.5 17.1 2.6 12-5.1 23.9-17.1 26.5-107 22.9-117.1 119.7-117.4 123.8-1.1 11.6-10.9 20.4-22.3 20.4zM329 649.8c-1.1 0-2.2-0.1-3.3-0.2-12.2-1.8-20.6-13.1-18.8-25.2 0.4-2.6 40.5-257.2 316.5-298.2 12.1-1.8 23.5 6.6 25.3 18.8 1.8 12.2-6.6 23.5-18.8 25.3-242.6 36-277.6 251.4-278.9 260.6-1.6 10.9-11.1 18.9-22 18.9z" fill="#59285E" p-id="18357"></path><path d="M932.7 747.3L865.5 781c-38.2 19.1-69.2 50.1-88.3 88.3l-33.6 67.2L712 905c-52.2-52.2-52.2-136.9 0-189.2 52.2-52.2 136.9-52.2 189.2 0l31.5 31.5z" fill="#EDCEC3" p-id="18358"></path><path d="M743.6 958.8c-5.9 0-11.5-2.3-15.8-6.5l-31.5-31.5c-60.8-60.8-60.8-159.8 0-220.7 60.8-60.8 159.8-60.8 220.7 0l31.5 31.5c5.1 5.1 7.4 12.3 6.2 19.3-1.2 7.1-5.6 13.2-12 16.4l-67.2 33.6c-33.7 16.8-61.5 44.6-78.3 78.3l-33.6 67.2c-3.2 6.4-9.3 10.9-16.4 12-1.3 0.3-2.5 0.4-3.6 0.4z m63-259.8c-28.5 0-57.1 10.9-78.8 32.6-43.5 43.5-43.5 114.2 0 157.6l9.6 9.6 19.8-39.6c21.1-42.2 56-77.1 98.3-98.3l39.6-19.8-9.6-9.6c-21.8-21.6-50.3-32.5-78.9-32.5z" fill="#59285E" p-id="18359"></path><path d="M275.9 243.2c-10.7 0-20.2-7.8-22-18.8-2-12.2 6.3-23.6 18.5-25.5l84.3-13.6c12-2 23.6 6.3 25.5 18.5 2 12.2-6.3 23.6-18.5 25.5L279.5 243c-1.2 0.2-2.4 0.2-3.6 0.2z" fill="#59285E" p-id="18360"></path><path d="M326.2 278.4c-10.5 0-19.8-7.4-21.9-18L288 176.6c-2.4-12.1 5.5-23.8 17.6-26.1 12.1-2.4 23.8 5.5 26.1 17.6l16.3 83.8c2.4 12.1-5.5 23.8-17.6 26.1-1.3 0.2-2.7 0.4-4.2 0.4z" fill="#59285E" p-id="18361"></path><path d="M710.2 740c-5.7 0-11.4-2.2-15.8-6.5l-340-340.1c-8.7-8.7-8.7-22.8 0-31.5s22.8-8.7 31.5 0L726 702c8.7 8.7 8.7 22.8 0 31.5-4.4 4.3-10.1 6.5-15.8 6.5z" fill="#59285E" p-id="18362"></path></svg>