<?xml version="1.0" standalone="no"?><!DOCTYPE svg PUBLIC "-//W3C//DTD SVG 1.1//EN" "http://www.w3.org/Graphics/SVG/1.1/DTD/svg11.dtd"><svg t="1546182252988" class="icon" style="" viewBox="0 0 1024 1024" version="1.1" xmlns="http://www.w3.org/2000/svg" p-id="2516" xmlns:xlink="http://www.w3.org/1999/xlink" width="200" height="200"><defs><style type="text/css"></style></defs><path d="M516.5 874.4h282.1v70.1H516.5z" fill="#F7D04A" p-id="2517"></path><path d="M516.5 874.4H587v70.1h-70.5z" fill="#F3B41B" p-id="2518"></path><path d="M583.3 265.7h148.5v166H583.3z" fill="#F7D04A" p-id="2519"></path><path d="M583.3 265.7h37.1v166h-37.1z" fill="#F3B41B" p-id="2520"></path><path d="M934.4 175.8L700.6 65.1c-2.7-1.3-5.6-1.6-8.5-1.1L94.6 174.6c-6.6 1.2-11.4 6.9-11.4 13.6v77.5c0 7.6 6.2 13.8 13.9 13.8h138.2v105.1h-45.5c-7.7 0-13.9 6.2-13.9 13.8v95.9c0 34.7 25.8 63.5 59.4 68.4v51.5c0 7.6-6.2 13.8-13.9 13.8h-3.7c-7.7 0-13.9-6.2-13.9-13.8v-12.9c0-7.6-6.2-13.8-13.9-13.8s-13.9 6.2-13.9 13.8v12.9c0 22.9 18.7 41.5 41.8 41.5h3.7c23 0 41.8-18.6 41.8-41.5v-51.5c33.5-4.9 59.4-33.7 59.4-68.4v-95.9c0-7.6-6.2-13.8-13.9-13.8h-45.5V279.5h306.2v26.7c0 7.6 6.2 13.8 13.9 13.8s13.9-6.2 13.9-13.8v-26.7h120.6v138.3H597.2V380c0-7.6-6.2-13.8-13.9-13.8s-13.9 6.2-13.9 13.8v51.6c0 7.6 6.2 13.8 13.9 13.8h23.2v415h-90c-7.7 0-13.9 6.2-13.9 13.8v70.1c0 7.6 6.2 13.8 13.9 13.8h174.4c7.7 0 13.9-6.2 13.9-13.8s-6.2-13.8-13.9-13.8H530.4v-42.4h254.2v42.4h-19.5c-7.7 0-13.9 6.2-13.9 13.8s6.2 13.8 13.9 13.8h33.4c7.7 0 13.9-6.2 13.9-13.8v-70.1c0-7.6-6.2-13.8-13.9-13.8h-90v-415h23.2c7.7 0 13.9-6.2 13.9-13.8V279.5h57.5v56.3c0 7.6 6.2 13.8 13.9 13.8h111.3c7.7 0 13.9-6.2 13.9-13.8V188.2c0.2-5.3-2.9-10.2-7.8-12.4z" fill="" p-id="2521"></path><path d="M831 279.5h83.5v42.4H831z" fill="#808080" p-id="2522"></path><path d="M294.7 494.4c0 22.9-18.7 41.5-41.8 41.5h-7.4c-23 0-41.8-18.6-41.8-41.5v-82.1h90.9l0.1 82.1z" fill="#EB6836" p-id="2523"></path><path d="M817.1 265.7h37.1v70.1h-37.1zM230.7 494.4v-95.9h-40.8v95.9c0 30.6 24.9 55.3 55.7 55.3h7.4c5.8 0 11.4-0.9 16.7-2.5-22.6-7-39-28-39-52.8z" fill="" p-id="2524"></path><path d="M914.5 214.3v37.6h-37.8z m-280.2 11l26.7 26.6h-26.7z m-162.4-13.8l40.7 40.4h-81.3z m-148.4 0l40.6 40.4h-81.2z m-148.5 0l40.7 40.4h-81.3z m118.6-9.4l-44.3 44-44.4-44z m148.5 0l-44.4 44-44.3-44h88.7z m148.4 0l-44.3 44-44.4-44z m90.2-27.7H247.8l432.9-80.2z m206.7 27.7l-44.3 44-44.4-44z m-178.9-27.7V99.5l158.3 74.9z m0 27.7H739l-30.5 30.2z m-27.8 30.2l-30.4-30.2h30.4zM111 202h34.1L111 236v-34z m468.8 49.9l26.7-26.6v26.6z m148.4 0l40.6-40.4 40.7 40.4z m-47.5 220.2L654 445.5h26.7zM654 860.6l26.7-26.6v26.6z m-19.7-314.7v-80.8l40.6 40.4z m5.8 33.4l40.6-40.4v80.8z m-5.8 114.1v-80.7l40.6 40.4z m40.6 107.2L634.3 841v-80.8z m-34.8-73.8l40.6-40.4v80.8z" fill="#FFFFFF" p-id="2525"></path></svg>