<?xml version="1.0" standalone="no"?><!DOCTYPE svg PUBLIC "-//W3C//DTD SVG 1.1//EN" "http://www.w3.org/Graphics/SVG/1.1/DTD/svg11.dtd"><svg t="1547642913056" class="icon" style="" viewBox="0 0 1024 1024" version="1.1" xmlns="http://www.w3.org/2000/svg" p-id="16602" xmlns:xlink="http://www.w3.org/1999/xlink" width="200" height="200"><defs><style type="text/css"></style></defs><path d="M514.89792 931.182592H723.5584v-720.92672L514.89792 92.32384v838.858752zM233.178112 436.42368v0.024576L64.96256 495.52384v435.659776h179.991552V432.283648l-11.776 4.140032zM115.32288 915.026944l-34.568192 1.00352v-47.104l34.568192-2.255872v48.356352z m0-70.020096l-34.568192 2.794496v-47.104l34.568192-4.016128v48.325632z m0-70.020096l-34.568192 4.580352v-47.101952l34.568192-5.80608v48.32768z m0-70.020096l-34.568192 6.36416v-47.099904l34.568192-7.591936v48.32768z m0-70.020096l-34.568192 8.128512v-47.104l34.568192-9.375744v48.351232z m0-70.019072l-34.568192 9.916416v-47.104l34.568192-11.1616v48.349184z m52.736 348.555264l-37.287936 1.099776v-48.910336l37.287936-2.425856v50.236416z m0-72.735744l-37.287936 3.011584v-48.891904l37.287936-4.330496v50.210816z m0-72.733696l-37.287936 4.943872v-48.891904l37.287936-6.269952v50.217984z m0-72.741888l-37.287936 6.857728v-48.891904l37.287936-8.177664v50.21184z m0-72.736768l-37.287936 8.764416v-48.88576l37.287936-10.112v50.233344z m0-72.735744l-37.287936 10.699776v-48.891904l37.287936-12.019712v50.21184z m56.991744 362.01984l-40.296448 1.175552V862.16704l40.296448-2.620416v52.272128z m0-75.675648l-40.296448 3.25632v-50.822144l40.296448-4.702208v52.268032z m0-75.675648l-40.296448 5.34016v-50.828288l40.296448-6.756352v52.24448z m0-75.672576l-40.296448 7.415808v-50.824192l40.296448-8.840192v52.248576z m0-75.6736l-40.296448 9.4976v-50.824192l40.296448-10.919936v52.246528z m0-75.67872l-40.296448 11.55584v-50.799616l40.296448-12.99968v52.243456z m251.360256-429.663232v0.052224l-218.036224 86.739968v639.719424h233.316352V97.712128l-15.280128 6.0672zM323.642368 806.59456l-44.827648 1.491968v-69.187584l44.827648-3.304448v71.000064z m0-102.828032l-44.827648 4.112384v-69.184512l44.827648-5.89824v70.970368z m0-102.797312l-44.827648 6.706176v-69.187584l44.827648-8.517632v70.99904z m0-102.82496l-44.827648 9.327616v-69.187584l44.827648-11.140096v71.000064z m0-102.828032l-44.827648 11.948032v-69.188608l44.827648-13.755392v70.995968z m0-102.800384l-44.827648 14.568448V237.89568l44.827648-16.379904v71.000064z m68.356096 511.801344l-48.32768 1.590272v-71.803904l48.32768-3.550208v73.76384z m0-106.81856l-48.32768 4.431872v-71.803904l48.32768-6.368256v73.740288z m0-106.791936l-48.32768 7.247872v-71.808l48.32768-9.203712v73.76384z m0-106.814464l-48.32768 10.063872v-71.784448l48.32768-12.019712v73.740288z m0-106.791936l-48.304128 12.879872v-71.808l48.328704-14.836736v73.764864h-0.024576z m0-106.816512l-48.32768 15.720448v-71.808l48.32768-17.652736v73.740288z m73.883648 531.582976l-52.243456 1.739776v-74.624l52.243456-3.844096v76.72832z m0-111.121408l-52.243456 4.775936v-74.602496l52.243456-6.880256v76.706816z m0-111.126528l-52.243456 7.831552v-74.619904l52.243456-9.939968v76.72832z m0-111.123456l-52.243456 10.892288v-74.619904l52.243456-12.99968v76.727296z m0-111.104l-52.243456 13.93152v-74.61888l52.243456-16.03584v76.7232z m0-111.123456l-52.243456 16.992256v-74.624l52.243456-19.096576v76.72832z m0 0" fill="#1296db" p-id="16603"></path><path d="M68.21888 851.765248l427.215872 33.978368-3.915776-136.559616L68.21888 851.765248z m0 0" fill="#1296db" p-id="16604"></path><path d="M767.40608 931.135488l0.320512 0.048128h151.887872l-21.300224-3.938304V869.34528l41.25184 9.07776v52.759552h18.828288V676.34688l-200.655872-70.752256v-0.048128l-14.052352-4.97152v330.607616h23.747584v-0.048128h-0.027648z m130.90816-229.548032l41.25184 13.36832v56.431616L898.31424 759.49056v-57.903104z m0 83.879936l41.25184 11.213824v56.429568L898.31424 843.3664v-57.899008z m-62.920704-104.24832l44.460032 14.396416V754.176l-44.460032-12.804096v-60.152832z m0 87.107584l44.460032 12.097536v58.558464l-44.460032-10.504192v-60.151808z m0 87.13216l44.460032 9.795584v58.560512l-44.460032-8.200192v-60.155904zM767.40608 659.186688l48.083968 15.567872v60.864512l-48.083968-13.855744v-62.57664z m0 90.632192l48.083968 13.074432v60.862464l-48.083968-11.360256v-62.57664z m0 90.655744l48.083968 10.605568v60.858368l-48.083968-8.884224v-62.579712z m0 0" fill="#1296db" p-id="16605"></path><path d="M759.990272 873.94304l198.404096 57.239552H759.990272V873.94304zM64.96256 858.031104h430.447616v73.152512H64.96256v-73.152512z m0 0" fill="#1296db" p-id="16606"></path></svg>