<?xml version="1.0" standalone="no"?><!DOCTYPE svg PUBLIC "-//W3C//DTD SVG 1.1//EN" "http://www.w3.org/Graphics/SVG/1.1/DTD/svg11.dtd"><svg t="1547643003222" class="icon" style="" viewBox="0 0 1024 1024" version="1.1" xmlns="http://www.w3.org/2000/svg" p-id="19606" xmlns:xlink="http://www.w3.org/1999/xlink" width="200" height="200"><defs><style type="text/css"></style></defs><path d="M999 306.1H27.5c-6.3 0-11.9-4.3-13.5-10.4-1.6-6.1 1.2-12.6 6.7-15.7L506.5 8.9c4.3-2.4 9.3-2.4 13.6 0L1005.8 280c5.5 3.1 8.3 9.5 6.7 15.7s-7.1 10.4-13.5 10.4z m-932.7-24h894l-447-249.5-447 249.5z" fill="#FB5151" p-id="19607"></path><path d="M1003.5 406.7h-981c-6.6 0-12-5.4-12-12v-98.6c0-6.6 5.4-12 12-12h981c6.6 0 12 5.4 12 12v98.6c0 6.6-5.4 12-12 12z m-969-24h957v-74.6h-957v74.6zM31.8 972.3c-4.1 0-7.9-2.1-10.1-5.5-2.2-3.4-2.5-7.8-0.9-11.5l59.1-130.1c1.9-4.3 6.2-7 10.9-7h841.4c4.5 0 8.7 2.6 10.7 6.6l63.1 125.8c1.9 3.7 1.7 8.1-0.5 11.7s-6 5.7-10.2 5.7l-963.5 4.3z m66.8-130.1l-48.1 106 925.5-4.1-51.1-101.9H98.6z" fill="#FB5151" p-id="19608"></path><path d="M268.5 841.5h-143c-6.6 0-12-5.4-12-12V396.6c0-6.6 5.4-12 12-12h142.9c6.6 0 12 5.4 12 12v432.9c0.1 6.7-5.3 12-11.9 12z m-131-24h118.9V408.6H137.5v408.9zM898.1 841.5H755.2c-6.6 0-12-5.4-12-12V396.4c0-6.6 5.4-12 12-12h142.9c6.6 0 12 5.4 12 12v433.2c0 6.6-5.4 11.9-12 11.9z m-130.9-24h118.9V408.4H767.2v409.1zM627.3 841.5H397.6c-6.6 0-12-5.4-12-12V395.3c0-6.6 5.4-12 12-12h229.7c6.6 0 12 5.4 12 12v434.2c0 6.7-5.4 12-12 12z m-217.7-24h205.7V407.3H409.6v410.2z" fill="#FB5151" p-id="19609"></path></svg>