<?xml version="1.0" standalone="no"?><!DOCTYPE svg PUBLIC "-//W3C//DTD SVG 1.1//EN" "http://www.w3.org/Graphics/SVG/1.1/DTD/svg11.dtd"><svg t="1547642791200" class="icon" style="" viewBox="0 0 1026 1024" version="1.1" xmlns="http://www.w3.org/2000/svg" p-id="12237" xmlns:xlink="http://www.w3.org/1999/xlink" width="200.390625" height="200"><defs><style type="text/css"></style></defs><path d="M444.928 101.54666666666667c38.912 0 70.144 31.232 70.144 70.144s-31.232 70.144-70.144 70.144-70.144-31.232-70.144-70.144S406.016 101.54666666666667 444.928 101.54666666666667z m239.616 433.664c38.912 0 310.784 360.448 310.784 360.448h-593.92s39.936-71.168 73.728-158.72c10.752-29.184 55.808 1.024 82.432-29.184 53.248-58.88 60.416-172.544 126.976-172.544zM368.64 229.03466666666665c48.64 10.752 52.224 55.808 52.224 55.808l1.024 265.216 141.824 78.848c13.312 8.704 14.336 24.064-3.584 24.064L332.288 526.5066666666667l57.856 117.248-8.704 250.368H332.8l-10.24-223.744L238.08 572.5866666666666 56.32 896.6826666666666H3.072l176.64-452.608 1.024-2.56-48.64-25.6-36.352-22.016 13.312-19.456c44.032-64.512 70.656-117.76 122.88-134.656 26.624-7.168 94.208-19.456 136.704-10.752z m6.144 294.912L367.616 418.9866666666667 315.392 490.1546666666667l59.392 33.792zM192 422.5706666666667l71.168-126.976h-37.376L148.48 397.99466666666666l43.52 24.576z" fill="#070606" p-id="12238"></path><path d="M697.344 362.1546666666667h49.152l-3.584-44.544h-40.448l-5.12 44.544z m11.776-94.208l-2.56 22.016h34.816l-2.048-22.016h-30.208z m-18.432 149.504l-13.312 111.104h82.944l-9.216-111.104h-60.416z m-251.904 105.472h80.896L660.48 251.05066666666667h-26.624l-195.072 271.872z m386.56-271.872h-26.112l141.824 271.872h79.872" fill="#070606" p-id="12239"></path></svg>