<?xml version="1.0" standalone="no"?><!DOCTYPE svg PUBLIC "-//W3C//DTD SVG 1.1//EN" "http://www.w3.org/Graphics/SVG/1.1/DTD/svg11.dtd"><svg t="1547643621914" class="icon" style="" viewBox="0 0 1024 1024" version="1.1" xmlns="http://www.w3.org/2000/svg" p-id="20946" xmlns:xlink="http://www.w3.org/1999/xlink" width="200" height="200"><defs><style type="text/css"></style></defs><path d="M209.777 368.482c11.71-0.066 16.034-4.403 16.041-16.183 0.018-34.33-0.116-68.66 0.107-102.988 0.046-7.106-2.002-12.524-8.148-16.206H178.86v124.802c2.966 8.304 9.085 11.23 17.546 10.635 4.436-0.312 8.913-0.034 13.371-0.06zM823.176 666.524c-6.227 0.391-12.502-0.061-18.748 0.127-7.587 0.229-12.362 4.649-12.387 12.067-0.126 37.06-0.117 74.121 0.009 111.181 0.027 8.008 4.574 12.393 12.482 12.65 5.799 0.188 11.637-0.281 17.406 0.188 7.679 0.625 13.441-1.846 17.166-8.692V675.952c-2.948-7.136-8.294-9.908-15.928-9.428z" fill="#1861AE" p-id="20947"></path><path d="M297.341 698.339c-3.797 0-7.637 0.115-11.382-0.383-9.558-1.271-16.151-9.263-15.696-18.601 0.438-8.983 7.59-16.099 16.97-16.761 2.672-0.189 5.364-0.119 8.047-0.119 146.264-0.01 292.527 0.106 438.791-0.086 50.311-0.066 90.214-40.525 90.216-90.611 0.002-50.037-40.151-90.381-90.338-90.511-51.436-0.133-102.873-0.038-154.31-0.044-96.612-0.011-193.224 0-289.835-0.063-11.531-0.008-19.439-7.348-19.549-17.647-0.112-10.475 8.123-18.123 19.816-18.147 27.731-0.056 55.462-0.003 83.194-0.006 120.765-0.014 241.53 0.171 362.294-0.141 55.941-0.145 98.405-53.272 87.113-107.99-8.894-43.095-45.39-73.034-89.568-73.054-164.155-0.075-328.31-0.035-492.465-0.039h-6.632v72.705h59.745c118.972-0.002 237.945-0.003 356.917-0.006 27.06 0 54.119 0.027 81.179-0.021 7.818-0.014 13.935 2.913 17.693 9.918 3.252 6.06 2.738 12.133-0.943 17.805-4.548 7.007-11.527 8.245-19.334 8.241-146.04-0.084-292.08-0.083-438.12 0.011-6.895 0.004-13.927 0.357-20.662 1.71-45.737 9.186-76.921 50.979-72.631 96.905 4.379 46.88 42.777 82.398 90.028 82.495 101.979 0.21 203.958 0.078 305.937 0.08 46.069 0.001 92.139-0.03 138.208-0.002 11.17 0.007 19.487 7.586 19.61 17.665 0.122 10.01-8.174 17.855-19.241 18.163-2.235 0.062-4.473 0.016-6.709 0.016-145.587-0.01-291.175-0.024-436.762-0.028-59.634-0.002-102.412 53.941-88.867 112.039 9.424 40.423 45.714 69.092 88.642 69.133 164.393 0.158 328.786 0.079 493.178 0.068 1.932 0 3.863-0.264 5.714-0.399v-72.282h-8.541c-160.571 0.001-321.139 0.003-481.707-0.013z" fill="#1861AE" p-id="20948"></path></svg>