<?xml version="1.0" standalone="no"?><!DOCTYPE svg PUBLIC "-//W3C//DTD SVG 1.1//EN" "http://www.w3.org/Graphics/SVG/1.1/DTD/svg11.dtd"><svg t="1547640779079" class="icon" style="" viewBox="0 0 1024 1024" version="1.1" xmlns="http://www.w3.org/2000/svg" p-id="4321" xmlns:xlink="http://www.w3.org/1999/xlink" width="200" height="200"><defs><style type="text/css"></style></defs><path d="M512 1024c-74.408304 0-147.044983-15.944637-219.681661-46.062284-109.84083-46.062284-200.193772-136.415225-246.256055-246.256055-72.636678-171.847751-58.463668-354.32526 38.975778-501.370242C180.705882 85.038062 340.152249 0 512 0c74.408304 0 147.044983 15.944637 219.681661 46.062284 109.84083 46.062284 200.193772 136.415225 246.256055 246.256055 72.636678 171.847751 58.463668 354.32526-38.975778 501.370242-95.66782 143.50173-255.114187 230.311419-426.961938 230.311419z m0-1006.283737C345.467128 17.716263 191.33564 100.982699 99.211073 239.16955c-93.896194 141.730104-108.069204 318.892734-37.204153 485.425606 44.290657 106.297578 131.100346 191.33564 237.397924 237.397924 70.865052 30.117647 141.730104 44.290657 212.595156 44.290657 166.532872 0 320.66436-83.266436 412.788927-221.453287 93.896194-141.730104 108.069204-318.892734 37.204153-485.425606-44.290657-106.297578-131.100346-191.33564-237.397924-237.397924-70.865052-30.117647-141.730104-44.290657-212.595156-44.290657z" fill="#F4511E" p-id="4322"></path><path d="M765.342561 549.204152c-35.432526 0-65.550173-17.716263-85.038063-44.290657-19.487889 26.574394-49.605536 44.290657-85.038062 44.290657s-65.550173-17.716263-85.038062-44.290657C490.740484 531.487889 458.851211 549.204152 425.190311 549.204152c-35.432526 0-65.550173-17.716263-85.038062-44.290657-19.487889 26.574394-51.377163 44.290657-86.809688 44.290657h-3.543253c-33.6609 0-63.778547-19.487889-81.49481-47.83391-17.716263-30.117647-19.487889-65.550173-3.543252-95.66782l38.975778-79.723183c17.716263-33.6609 51.377163-54.920415 88.581315-54.920415h446.449827c42.519031 0 79.723183 26.574394 93.896194 67.321799l26.574394 77.951557c14.17301 38.975779 1.771626 83.266436-31.889273 109.84083-14.17301 14.17301-37.204152 23.031142-62.00692 23.031142z m-65.550173-104.525951c0 35.432526 30.117647 65.550173 65.550173 65.550173 14.17301 0 28.346021-5.314879 40.747404-14.173011 19.487889-15.944637 26.574394-40.747405 17.716263-65.550173L797.231834 352.553633c-8.858131-24.802768-30.117647-40.747405-56.692042-40.747405H294.089965c-23.031142 0-42.519031 12.401384-53.148789 33.6609L201.965398 425.190311c-8.858131 17.716263-8.858131 40.747405 1.771626 58.463668s28.346021 28.346021 47.83391 28.346021h1.771627c35.432526 0 65.550173-30.117647 65.550173-65.550173 0-10.629758 8.858131-19.487889 19.487889-19.487889s19.487889 8.858131 19.487889 19.487889c0 35.432526 30.117647 65.550173 65.550173 65.550173s65.550173-30.117647 65.550173-65.550173c0-10.629758 8.858131-19.487889 19.487889-19.487889s19.487889 8.858131 19.48789 19.487889c0 35.432526 30.117647 65.550173 65.550173 65.550173s65.550173-30.117647 65.550173-65.550173c0-10.629758 8.858131-19.487889 19.487889-19.487889s21.259516 5.314879 21.259516 17.716263zM719.280277 827.349481H299.404844c-35.432526 0-72.636678-28.346021-72.636678-70.865052v-168.304498c0-10.629758 8.858131-19.487889 19.487889-19.487889s19.487889 8.858131 19.48789 19.487889v168.304498c0 19.487889 19.487889 31.889273 31.889273 31.889273h419.875433c19.487889 0 31.889273-12.401384 31.889273-31.889273v-168.304498c0-10.629758 8.858131-19.487889 19.487889-19.487889s19.487889 8.858131 19.487889 19.487889v168.304498c3.543253 38.975779-26.574394 70.865052-69.093425 70.865052zM749.397924 239.16955H267.515571c-10.629758 0-19.487889-7.086505-19.487889-17.716263s8.858131-17.716263 19.487889-17.716263h480.110727c10.629758 0 19.487889 7.086505 19.487889 17.716263s-7.086505 17.716263-17.716263 17.716263z" fill="#F4511E" p-id="4323"></path></svg>