<?xml version="1.0" standalone="no"?><!DOCTYPE svg PUBLIC "-//W3C//DTD SVG 1.1//EN" "http://www.w3.org/Graphics/SVG/1.1/DTD/svg11.dtd"><svg t="1547464839843" class="icon" style="" viewBox="0 0 1035 1024" version="1.1" xmlns="http://www.w3.org/2000/svg" p-id="4579" xmlns:xlink="http://www.w3.org/1999/xlink" width="202.1484375" height="200"><defs><style type="text/css"></style></defs><path d="M929.621 650.24H51.541C23.04 650.24 0 627.2 0 598.699V419.157c0-28.501 23.04-51.541 51.541-51.541H977.75c17.579 0 35.328 8.704 46.251 22.87 10.24 13.14 13.483 29.695 9.216 46.591l-44.885 175.958c-6.486 24.405-34.304 37.205-58.71 37.205zM51.541 401.75c-9.557 0-17.408 7.85-17.408 17.407V598.7c0 9.557 7.851 17.408 17.408 17.408h878.08c12.971 0 24.235-6.144 25.6-11.606l44.886-175.786c1.706-6.656 0.682-12.288-3.072-17.067-4.438-5.632-12.288-9.728-19.286-9.728H51.541z" fill="" p-id="4580"></path><path d="M609.963 489.301H485.205c-9.386 0-17.066-7.68-17.066-17.066s7.68-17.067 17.066-17.067h124.758c9.386 0 17.066 7.68 17.066 17.067s-7.68 17.066-17.066 17.066z m292.352-87.552H542.549V176.811c0-27.136 22.187-49.323 49.323-49.323h183.637c29.696 0 41.984 28.843 47.958 42.667l0.512 1.194 78.336 230.4z m-325.632-34.133h277.845l-62.805-184.661c-4.779-11.094-10.07-21.334-16.384-21.334H591.872c-8.363 0-15.19 6.827-15.19 15.19v190.805z" fill="" p-id="4581"></path><path d="M139.264 637.781a84.992 84.992 0 1 0 169.984 0 84.992 84.992 0 1 0-169.984 0z" fill="#7DE5DB" p-id="4582"></path><path d="M224.256 739.84c-56.32 0-102.059-45.739-102.059-102.059s45.739-102.058 102.059-102.058S326.315 581.46 326.315 637.78 280.576 739.84 224.256 739.84z m0-169.984c-37.376 0-67.925 30.55-67.925 67.925s30.549 67.926 67.925 67.926 67.925-30.55 67.925-67.926-30.549-67.925-67.925-67.925z" fill="" p-id="4583"></path><path d="M659.285 637.781a84.992 84.992 0 1 0 169.984 0 84.992 84.992 0 1 0-169.984 0z" fill="#7DE5DB" p-id="4584"></path><path d="M744.277 739.84c-56.32 0-102.058-45.739-102.058-102.059s45.738-102.058 102.058-102.058S846.336 581.46 846.336 637.78 800.597 739.84 744.277 739.84z m0-169.984c-37.376 0-67.925 30.55-67.925 67.925s30.55 67.926 67.925 67.926 67.926-30.55 67.926-67.926-30.55-67.925-67.926-67.925z" fill="" p-id="4585"></path><path d="M778.581 318.976H634.197v-94.208c0-8.021 6.486-14.507 14.507-14.507h83.115c8.021 0 11.946 8.192 14.506 14.507l32.256 94.208z" fill="#7DE5DB" p-id="4586"></path><path d="M802.475 336.043H617.13V224.768c0-17.408 14.165-31.573 31.573-31.573h83.115c13.312 0 23.552 8.533 30.378 25.088l0.342 0.853 39.936 116.907z m-151.211-34.134h103.424l-24.405-71.168c-0.683-1.536-1.195-2.73-1.536-3.413h-77.483v74.581z" fill="" p-id="4587"></path></svg>