<?xml version="1.0" standalone="no"?><!DOCTYPE svg PUBLIC "-//W3C//DTD SVG 1.1//EN" "http://www.w3.org/Graphics/SVG/1.1/DTD/svg11.dtd"><svg t="1547465094292" class="icon" style="" viewBox="0 0 1124 1024" version="1.1" xmlns="http://www.w3.org/2000/svg" p-id="13008" xmlns:xlink="http://www.w3.org/1999/xlink" width="219.53125" height="200"><defs><style type="text/css"></style></defs><path d="M1081.344 627.712H903.68v-34.133333h177.664c4.949333 0 9.045333-4.096 9.045333-9.045334v-118.784c0-42.666667-13.994667-71.168-83.456-81.237333h-0.512l-157.013333-27.818667-109.226667-122.197333c-8.021333-8.533333-23.552-15.530667-34.474666-15.530667h-332.8c-5.802667 0-14.677333 0-37.717334 25.088L219.818667 374.954667H93.354667c-32.597333 0-59.221333 26.624-59.221334 59.221333v150.357333c0 4.949333 4.096 9.045333 9.045334 9.045334H238.592v34.133333H43.178667c-23.893333 0-43.178667-19.285333-43.178667-43.178667v-150.357333c0-51.541333 41.813333-93.354667 93.354667-93.354667H204.458667l105.472-119.808c23.893333-26.112 41.472-36.352 62.976-36.352h332.629333c20.650667 0 45.056 10.922667 59.562667 26.624l0.170666 0.170667 101.546667 113.493333 145.066667 25.770667c40.277333 5.973333 68.608 18.432 87.04 38.229333 17.237333 18.602667 25.429333 43.690667 25.429333 76.8v118.784c0.170667 23.893333-19.114667 43.178667-43.008 43.178667z" fill="" p-id="13009"></path><path d="M361.472 593.578667h406.016v34.133333H361.472z" fill="" p-id="13010"></path><path d="M271.018667 610.645333m-99.157334 0a99.157333 99.157333 0 1 0 198.314667 0 99.157333 99.157333 0 1 0-198.314667 0Z" fill="#7DE5DB" p-id="13011"></path><path d="M271.018667 726.869333c-64.170667 0-116.224-52.053333-116.224-116.224 0-64 52.053333-116.224 116.224-116.224s116.224 52.053333 116.224 116.224c0 64.170667-52.053333 116.224-116.224 116.224z m0-198.314666c-45.226667 0-82.090667 36.864-82.090667 82.090666s36.864 82.090667 82.090667 82.090667 82.090667-36.864 82.090666-82.090667-36.864-82.090667-82.090666-82.090666z" fill="" p-id="13012"></path><path d="M857.429333 610.645333m-99.157333 0a99.157333 99.157333 0 1 0 198.314667 0 99.157333 99.157333 0 1 0-198.314667 0Z" fill="#7DE5DB" p-id="13013"></path><path d="M857.429333 726.869333c-64 0-116.224-52.053333-116.224-116.224 0-64 52.053333-116.224 116.224-116.224 64.170667 0 116.224 52.053333 116.224 116.224 0 64.170667-52.053333 116.224-116.224 116.224z m0-198.314666c-45.226667 0-82.090667 36.864-82.090666 82.090666s36.864 82.090667 82.090666 82.090667 82.090667-36.864 82.090667-82.090667-36.864-82.090667-82.090667-82.090666zM294.058667 381.269333c-13.312 0-23.04-9.898667-23.04-23.722666 0-7.168 3.242667-11.776 16.042666-26.965334 6.485333-7.68 15.530667-17.92 26.794667-30.549333 19.114667-21.333333 38.4-42.496 38.570667-42.666667l0.682666-0.682666c9.386667-9.045333 20.992-18.773333 39.253334-18.773334h101.717333c15.872 0 28.672 12.629333 28.672 28.330667v86.186667c-0.341333 15.701333-13.141333 27.989333-28.842667 27.989333l-199.850666 0.853333z m83.114666-100.522666c-21.674667 23.552-44.714667 49.322667-59.392 66.218666l170.837334-0.853333v-74.24h-96.256c-3.925333 0-7.168 1.365333-15.189334 8.874667z m116.906667 65.365333zM791.04 381.269333l-210.602667-1.024c-16.042667 0-29.184-12.8-29.184-28.501333v-85.674667c0-15.701333 13.141333-28.330667 29.184-28.330666h107.861334c18.432 0 30.378667 9.557333 40.106666 18.602666l0.682667 0.682667c0.170667 0.170667 20.309333 21.333333 40.277333 42.666667 11.776 12.629333 21.162667 22.869333 27.818667 30.549333 13.312 15.189333 16.725333 19.968 16.725333 27.306667 0.170667 13.824-9.557333 23.722667-22.869333 23.722666z m0-34.133333z m-205.653333-1.024l181.077333 0.853333c-15.189333-17.066667-39.253333-42.666667-61.610667-66.048-7.68-6.997333-11.434667-9.045333-16.554666-9.045333h-102.912v74.24z m-4.949334 0zM493.397333 437.930667v32.426666h-32.426666v-32.426666h32.426666m10.24-20.48h-52.906666c-5.632 0-10.24 4.608-10.24 10.24v52.906666c0 5.632 4.608 10.24 10.24 10.24h52.906666c5.632 0 10.24-4.608 10.24-10.24v-52.906666c0-5.632-4.608-10.24-10.24-10.24zM28.16 483.157333c-4.437333 0-8.533333-0.341333-12.629333-0.682666l-15.530667-1.536v-46.762667c0-51.541333 41.813333-93.354667 93.354667-93.354667h41.642666l2.56 13.994667c1.024 5.461333 1.536 11.264 1.536 17.578667-0.170667 61.098667-49.834667 110.762667-110.933333 110.762666z m65.194667-108.202666c-32.597333 0-59.221333 26.624-59.221334 59.221333v14.677333c38.570667-3.072 69.290667-34.816 70.656-73.898666h-11.434666zM1080.832 497.834667c-58.368 0-105.984-47.616-105.984-105.984 0-10.410667 1.706667-21.162667 4.778667-31.573334l4.437333-14.506666 27.989333 4.949333c40.277333 5.973333 68.608 18.432 86.869334 38.229333 17.237333 18.602667 25.429333 43.690667 25.258666 76.8v23.722667l-12.117333 3.754667c-9.898667 3.072-20.48 4.608-31.232 4.608z m-71.509333-112.981334c-0.170667 2.389333-0.341333 4.608-0.341334 6.997334 0 39.594667 32.256 71.850667 71.850667 71.850666 3.072 0 6.314667-0.170667 9.386667-0.512-0.512-40.789333-14.848-68.096-80.896-78.336z" fill="" p-id="13014"></path><path d="M545.621333 490.154667v32.426666h-32.426666v-32.426666h32.426666m10.24-20.48h-52.906666c-5.632 0-10.24 4.608-10.24 10.24v52.906666c0 5.632 4.608 10.24 10.24 10.24h52.906666c5.632 0 10.24-4.608 10.24-10.24v-52.906666c0-5.632-4.608-10.24-10.24-10.24z" fill="" p-id="13015"></path><path d="M597.674667 438.101333v32.426667h-32.426667v-32.426667h32.426667m10.24-20.48h-52.906667c-5.632 0-10.24 4.608-10.24 10.24v52.906667c0 5.632 4.608 10.24 10.24 10.24h52.906667c5.632 0 10.24-4.608 10.24-10.24v-52.906667c0-5.632-4.608-10.24-10.24-10.24z" fill="" p-id="13016"></path><path d="M650.069333 490.325333v32.426667h-32.426666v-32.426667h32.426666m10.24-20.48h-52.906666c-5.632 0-10.24 4.608-10.24 10.24v52.906667c0 5.632 4.608 10.24 10.24 10.24h52.906666c5.632 0 10.24-4.608 10.24-10.24v-52.906667c0-5.632-4.608-10.24-10.24-10.24z" fill="" p-id="13017"></path></svg>