<?xml version="1.0" standalone="no"?><!DOCTYPE svg PUBLIC "-//W3C//DTD SVG 1.1//EN" "http://www.w3.org/Graphics/SVG/1.1/DTD/svg11.dtd"><svg t="1547639056999" class="icon" style="" viewBox="0 0 1024 1024" version="1.1" xmlns="http://www.w3.org/2000/svg" p-id="3420" xmlns:xlink="http://www.w3.org/1999/xlink" width="200" height="200"><defs><style type="text/css"></style></defs><path d="M512 1024l-9.844142-3.77769C342.373121 959.225543 218.718387 801.596212 144.481248 564.413906 89.366355 388.252977 80.494322 232.174099 80.112862 225.566218l-0.97211-18.457767L512 0l432.871553 207.083841-0.972109 18.457767c-0.35685 6.55866-9.253494 162.686759-64.368387 338.847687-74.249444 237.206917-197.904178 394.836247-357.649999 455.833015zM136.876648 240.89847c9.118137 101.726907 68.908997 596.690388 375.123352 723.630605 306.263576-126.940217 366.005215-621.903698 375.123352-723.630605L512 61.390533z" fill="#1DB4B1" p-id="3421"></path><path d="M464.514318 633.778194a27.612819 27.612819 0 0 1-19.589843-8.121417L308.496966 489.229268a27.703878 27.703878 0 0 1 39.179687-39.179687l136.427508 136.427509a27.711261 27.711261 0 0 1-19.589843 47.301104z" fill="#1DB4B1" p-id="3422"></path><path d="M467.196847 634.393453a27.711261 27.711261 0 0 1-18.913059-47.990194l238.215942-222.305346a27.711261 27.711261 0 1 1 37.826117 40.508646L486.109905 626.936515a27.649735 27.649735 0 0 1-18.913058 7.456938z" fill="#1DB4B1" p-id="3423"></path></svg>