<?xml version="1.0" standalone="no"?><!DOCTYPE svg PUBLIC "-//W3C//DTD SVG 1.1//EN" "http://www.w3.org/Graphics/SVG/1.1/DTD/svg11.dtd"><svg t="1547638921818" class="icon" style="" viewBox="0 0 1024 1024" version="1.1" xmlns="http://www.w3.org/2000/svg" p-id="2363" xmlns:xlink="http://www.w3.org/1999/xlink" width="200" height="200"><defs><style type="text/css"></style></defs><path d="M591.36 1017.856H434.176V331.264c0-43.52 35.328-78.848 78.848-78.848s78.848 35.328 78.848 78.848v686.592h-0.512z m-126.464-30.72h95.744V331.264c0-26.624-21.504-48.128-48.128-48.128s-48.128 21.504-48.128 48.128v655.872z m423.424-770.56V87.552c0-37.376-35.328-68.096-78.848-68.096s-78.848 30.72-78.848 68.096v136.192c0 2.048 0 3.584 0.512 5.632v788.992h157.696l-0.512-801.792z m-78.848-110.08c27.136 0 49.152 22.016 49.152 49.152s-22.016 49.152-49.152 49.152-49.152-22.016-49.152-49.152 22.016-49.152 49.152-49.152z m-47.616 880.64V277.504c13.312 8.704 29.696 13.824 47.616 13.824 18.432 0 34.816-5.12 48.128-14.336v709.632h-95.744zM294.912 216.576V87.552c0-37.376-35.328-68.096-78.848-68.096s-78.848 30.72-78.848 68.096v930.816h157.696V216.576zM216.064 106.496c27.136 0 49.152 22.016 49.152 49.152S243.2 204.8 216.064 204.8s-49.152-22.016-49.152-49.152 22.528-49.152 49.152-49.152z m-47.616 880.64V277.504c13.312 8.704 29.696 13.824 48.128 13.824 17.92 0 34.816-5.12 48.128-13.824v709.632H168.448z" fill="#25D7F4" p-id="2364"></path><path d="M1019.392 427.52H880.64v-35.84h138.752v35.84z m-874.496 0h-138.24v-35.84h138.24v35.84z m609.28 0h-177.664v-35.84h177.664v35.84z m-304.64 0H271.872v-35.84h177.664v35.84z m569.856 218.112H880.64v-35.84h138.752v35.84z m-874.496 0h-138.24v-35.84h138.24v35.84z m609.28-0.512h-177.664v-35.84h177.664v35.84z m-304.64 0H271.872v-35.84h177.664v35.84z" fill="#25D7F4" p-id="2365"></path></svg>