<?xml version="1.0" standalone="no"?><!DOCTYPE svg PUBLIC "-//W3C//DTD SVG 1.1//EN" "http://www.w3.org/Graphics/SVG/1.1/DTD/svg11.dtd"><svg t="1547466210893" class="icon" style="" viewBox="0 0 1024 1024" version="1.1" xmlns="http://www.w3.org/2000/svg" p-id="19732" xmlns:xlink="http://www.w3.org/1999/xlink" width="200" height="200"><defs><style type="text/css"></style></defs><path d="M877.568 787.456l-116.736-186.368h51.2c12.8 0 23.04-9.728 23.04-22.016 0-5.12-2.048-9.216-5.12-12.8h0.512l-110.08-140.288h46.08c12.8 0 23.04-9.728 23.04-22.016 0-6.656-3.072-12.288-7.68-16.384l-125.952-137.216h41.472c12.8 0 23.04-9.728 23.04-22.016 0-6.144-2.56-11.776-6.656-15.36L529.92 37.376c-4.096-4.096-10.24-6.656-16.384-6.656-6.144 0-11.776 2.048-16.384 6.656L313.344 212.48c-4.096 4.096-6.656 9.216-6.656 15.36 0 12.288 10.24 22.016 23.04 22.016h41.472L245.76 387.072c-4.608 4.096-7.68 9.728-7.68 16.384 0 12.288 10.24 22.016 23.04 22.016h46.08l-110.08 140.288h0.512c-3.072 3.584-5.12 8.192-5.12 12.8 0 12.288 10.24 22.016 23.04 22.016h51.2l-116.736 186.368h0.512c-2.048 3.072-3.584 7.168-3.584 11.264 0 12.288 10.24 22.016 23.04 22.016h252.928v153.6c0 12.288 10.24 22.016 23.04 22.016H583.68c12.8 0 23.04-9.728 23.04-22.016v-153.6h252.928c12.8 0 23.04-9.728 23.04-22.016-1.536-3.584-3.072-7.68-5.12-10.752z m-509.44-87.552l55.808-127.488c1.024-2.048 1.536-4.608 1.536-7.68 0-8.192-5.12-14.848-10.752-14.848h-22.016L445.44 453.12c1.536-2.56 2.56-5.632 2.56-8.704 0-8.192-5.12-14.848-10.752-14.848h-19.968l59.904-94.208c2.048-2.56 3.584-6.656 3.584-11.264 0-8.192-5.12-14.848-10.752-14.848h-17.408l61.44-83.968 61.44 83.968H558.08c-6.144 0-10.752 6.656-10.752 14.848 0 4.608 1.536 8.192 3.584 11.264l59.904 94.208h-19.968c-6.144 0-10.752 6.656-10.752 14.848 0 3.584 1.024 6.144 2.56 8.704l52.736 96.256h-22.016c-6.144 0-10.752 6.656-10.752 14.848 0 3.072 0.512 5.12 1.536 7.68l55.808 127.488-291.84 0.512z" fill="#25AE60" p-id="19733"></path><path d="M881.152 798.72c0 12.288-10.24 22.016-23.04 22.016h-252.928v153.6c0 12.288-10.24 22.016-23.04 22.016H512v-296.448h146.944l-55.808-127.488c-1.024-2.048-1.536-4.608-1.536-7.68 0-8.192 5.12-14.848 10.752-14.848h22.016l-52.736-96.256c-1.536-2.56-2.56-5.632-2.56-8.704 0-8.192 5.12-14.848 11.264-14.848h19.968l-59.904-94.208c-2.048-2.56-3.584-6.656-3.584-11.264 0-8.192 5.12-14.848 10.752-14.848h17.408l-61.44-83.968-1.536 2.048V30.72h1.536c6.144 0 11.776 2.56 16.384 6.656l183.808 175.616c4.096 4.096 6.656 9.216 6.656 15.36 0 12.288-10.24 22.016-23.04 22.016h-41.472l125.952 137.216c4.608 4.096 7.68 9.728 7.68 16.384 0 12.288-10.24 22.016-23.04 22.016h-46.08l110.08 140.288h-0.512c3.072 3.584 5.12 8.192 5.12 12.8 0 12.288-10.24 22.016-23.04 22.016h-51.2l116.736 186.368h-0.512c2.56 3.584 4.096 7.168 4.096 11.264z" fill="#0E893F" p-id="19734"></path></svg>