<?xml version="1.0" standalone="no"?><!DOCTYPE svg PUBLIC "-//W3C//DTD SVG 1.1//EN" "http://www.w3.org/Graphics/SVG/1.1/DTD/svg11.dtd"><svg t="1547469369116" class="icon" style="" viewBox="0 0 1024 1024" version="1.1" xmlns="http://www.w3.org/2000/svg" p-id="4298" xmlns:xlink="http://www.w3.org/1999/xlink" width="200" height="200"><defs><style type="text/css"></style></defs><path d="M987.136 567.296m-20.48 0a20.48 20.48 0 1 0 40.96 0 20.48 20.48 0 1 0-40.96 0Z" fill="#D0A762" p-id="4299"></path><path d="M32.768 389.12m-20.48 0a20.48 20.48 0 1 0 40.96 0 20.48 20.48 0 1 0-40.96 0Z" fill="#D0A762" p-id="4300"></path><path d="M864.256 43.008m-14.336 0a14.336 14.336 0 1 0 28.672 0 14.336 14.336 0 1 0-28.672 0Z" fill="#D0A762" p-id="4301"></path><path d="M159.744 886.784m-16.384 0a16.384 16.384 0 1 0 32.768 0 16.384 16.384 0 1 0-32.768 0Z" fill="#D0A762" p-id="4302"></path><path d="M876.544 307.2c-16.384-16.384-36.864-24.576-61.44-24.576-22.528 0-45.056 8.192-61.44 24.576l-83.968 83.968-81.92-81.92c-4.096-4.096-8.192-8.192-12.288-10.24-49.152-40.96-112.64-63.488-176.128-63.488C247.808 235.52 122.88 358.4 122.88 512s124.928 276.48 276.48 276.48c61.44 0 120.832-20.48 169.984-59.392 8.192-4.096 14.336-8.192 18.432-14.336l81.92-81.92 83.968 83.968c16.384 16.384 36.864 24.576 61.44 24.576 22.528 0 45.056-8.192 61.44-24.576 16.384-16.384 24.576-36.864 24.576-61.44 0-22.528-8.192-45.056-24.576-61.44l-83.968-81.92 83.968-83.968c32.768-32.768 32.768-86.016 0-120.832z m-28.672 92.16l-98.304 98.304c-4.096 4.096-6.144 8.192-6.144 14.336s2.048 10.24 6.144 14.336l98.304 98.304c8.192 8.192 12.288 20.48 12.288 30.72 0 12.288-4.096 22.528-12.288 30.72-16.384 16.384-47.104 16.384-63.488 0l-98.304-98.304c-8.192-8.192-20.48-8.192-28.672 0l-96.256 96.256c-2.048 2.048-6.144 4.096-10.24 8.192-2.048 0-2.048 2.048-4.096 2.048-43.008 32.768-92.16 51.2-147.456 51.2C270.336 747.52 163.84 643.072 163.84 512s106.496-235.52 235.52-235.52c55.296 0 108.544 20.48 151.552 55.296 0 0 2.048 0 2.048 2.048l6.144 6.144 96.256 96.256c8.192 8.192 20.48 8.192 28.672 0l98.304-98.304c16.384-16.384 47.104-16.384 63.488 0 18.432 16.384 18.432 45.056 2.048 61.44z" fill="#D0A762" p-id="4303"></path><path d="M294.429518 541.92694a30.72 30.72 0 1 0 13.196481-60.006054 30.72 30.72 0 1 0-13.196481 60.006054Z" fill="#D0A762" p-id="4304"></path></svg>