<?xml version="1.0" standalone="no"?><!DOCTYPE svg PUBLIC "-//W3C//DTD SVG 1.1//EN" "http://www.w3.org/Graphics/SVG/1.1/DTD/svg11.dtd"><svg t="1547467921001" class="icon" style="" viewBox="0 0 1024 1024" version="1.1" xmlns="http://www.w3.org/2000/svg" p-id="3804" xmlns:xlink="http://www.w3.org/1999/xlink" width="200" height="200"><defs><style type="text/css"></style></defs><path d="M640 560.67a6.65 6.65 0 0 1 1.36 0.91 479.49 479.49 0 0 0 95.62 51.66c61.17-9.51 133.68-15.41 222.95-15.41v-71.14c-136.4 0-237.46 13.59-318.12 33.53zM507.64 683.48c-20.85-16.31-40.33-33.53-58.46-50.75C437.86 638.17 427 643.6 416.1 649 320 697.53 237.56 739.22 64 739.22v71.15c190.32 0 284.58-47.58 384.27-97.89 19.49-9.51 39-19.48 59.37-29z m0 0M395.26 327.75c37.15 32.18 70.24 67.07 101.5 100.15 32.18 34 63.15 68.11 98.49 98 81.12-35.34 187.56-61.76 364.75-61.76v-266c-298.63 0-451 68.43-564.74 129.6z m32.63 284.59l-1.82-1.82c-20.84-20.39-39.87-40.78-58.45-60.72C312.78 491.34 267 442.85 209 413c-39.88 10.42-85.65 15.86-145 15.86v266c161.78 0 266.91-35.8 351.65-77 3.62-1.81 9.52-4.53 9.52-4.53z m0 0" fill="#D9D9D9" p-id="3805"></path><path d="M959.94 838.35c-101.81 0-190.89-14.07-272.35-43-65-23.09-124.34-55.57-181.13-99.19l-0.49 0.23-6.1-4.91c-19.32-15.52-38.11-31.83-59.13-51.32l-34.9-32.72 0.91-0.45c-15.4-15.65-31.28-32.25-48.21-50.4l-2.63-2.77c-52.27-55.3-97.41-103.05-152.57-131.5-41.25-21.32-84.5-31.25-136.13-31.25h-3.06l-12.59 0.09V188.45h12.5c72.14 0 136.51 12.27 196.79 37.5 49.35 20.66 96 50.3 142.64 90.61 35.84 30.6 67.39 64 97.9 96.24l10.66 11.28c30.4 32.13 59.11 62.49 91.7 90.49 8.64 7.4 32.6 27.44 41.93 33.19l8.14 0.94v4.59a456.24 456.24 0 0 0 83.83 45l0.73-0.12 3.18 1.25c62 24.43 132 36.31 214.07 36.3h4.23l12.56-0.06v202.7z" fill="#BFBFBF" p-id="3806"></path><path d="M64.06 201c150.45 0 251 55.74 331.25 125.07 37.16 31.72 69.79 66.61 101.51 100.15 32.17 34 63.44 67.52 98.79 97.88 0 0 32.68 28 44.41 34.89 0.45 0.27 0.87 0.6 1.3 0.9h0.06a470.67 470.67 0 0 0 94.82 51.31l0.8-0.13c58.88 23.19 129.16 37.16 218.65 37.16h4.29v177.62c-214.08 0-350.41-64.65-451.88-144.27l-0.36 0.16C486.85 665 467.82 648.21 449.24 631l-21.75-20.4 0.3-0.15c-21.24-21.24-41.13-42-60.12-62.39-54.83-58-100.6-106.94-158.61-136.85-39.6-20.47-84.45-32.64-141.85-32.64h-3.15V201m0-25h-25v227.78l25.19-0.19h3c49.55 0 91 9.49 130.37 29.85 53.3 27.48 95.64 72.28 149.25 129l2.63 2.78c12.63 13.53 24.68 26.21 36.38 38.28l6.81 7.55 17.74 17.82 21.75 20.39h0.05l0.05 0.05c21.25 19.69 40.24 36.18 59.79 51.9l12.14 9.79 0.71-0.33c56 42.11 114.53 73.73 178.48 96.44a730.81 730.81 0 0 0 125.84 32c47.16 7.75 97.87 11.68 150.7 11.68h25v-227.7l-25.12 0.12h-4.17c-80.44 0-149-11.58-209.49-35.43l-6.35-2.5-0.61 0.1a443.2 443.2 0 0 1-72.82-38.76l-7.48-5.23-8.9-5.73c-8.55-5.89-26.64-20.74-38.13-30.59-32.09-27.56-60.58-57.69-90.74-89.58L515 409l-4.51-4.76c-30.72-32.5-62.48-66.1-98.87-97.17-47.63-41.16-95.36-71.46-145.92-92.63a485 485 0 0 0-92.81-28.2A561.13 561.13 0 0 0 64.06 176z" fill="#FFFFFF" p-id="3807"></path></svg>