<?xml version="1.0" standalone="no"?><!DOCTYPE svg PUBLIC "-//W3C//DTD SVG 1.1//EN" "http://www.w3.org/Graphics/SVG/1.1/DTD/svg11.dtd"><svg t="1547476028482" class="icon" style="" viewBox="0 0 1194 1024" version="1.1" xmlns="http://www.w3.org/2000/svg" p-id="11432" xmlns:xlink="http://www.w3.org/1999/xlink" width="233.203125" height="200"><defs><style type="text/css"></style></defs><path d="M707.128889 95.630222c-63.146667-100.295111-174.307556-100.352-237.795556 0.284445L27.761778 796.103111c-64 101.432889-12.686222 194.56 108.316444 196.835556h917.504c121.457778 2.275556 173.795556-88.291556 109.795556-189.895111l-13.653334-21.731556-9.329777-14.904889a29.809778 29.809778 0 0 0-40.789334-9.443555 29.013333 29.013333 0 0 0-9.557333 40.220444l9.386667 14.961778 13.653333 21.731555c39.196444 62.236444 16.213333 102.058667-58.368 100.636445H137.159111c-75.093333-1.365333-98.872889-44.600889-59.164444-107.52L519.68 126.748444c40.277333-63.829333 97.166222-63.772444 137.386667 0.113778l356.693333 549.091556a29.980444 29.980444 0 0 0 40.96 8.817778 29.013333 29.013333 0 0 0 8.988444-40.391112L707.072 95.573333z" fill="#FF3333" p-id="11433"></path><path d="M551.651556 632.035556c0 16.554667 16.497778 29.923556 36.750222 29.923555 20.309333 0 36.807111-13.368889 36.807111-29.923555V250.595556c0-16.497778-16.497778-29.923556-36.807111-29.923556-20.252444 0-36.750222 13.368889-36.750222 29.923556v381.44zM552.391111 813.738667c0.113778 17.92 16.497778 32.256 36.636445 32.142222 20.081778-0.170667 36.295111-14.734222 36.181333-32.597333l-0.682667-82.432c-0.170667-17.863111-16.611556-32.256-36.693333-32.085334-20.138667 0.113778-36.352 14.677333-36.181333 32.540445l0.682666 82.488889z" fill="#FF3333" p-id="11434"></path></svg>