<?xml version="1.0" standalone="no"?><!DOCTYPE svg PUBLIC "-//W3C//DTD SVG 1.1//EN" "http://www.w3.org/Graphics/SVG/1.1/DTD/svg11.dtd"><svg t="1547641121737" class="icon" style="" viewBox="0 0 1024 1024" version="1.1" xmlns="http://www.w3.org/2000/svg" p-id="10344" xmlns:xlink="http://www.w3.org/1999/xlink" width="200" height="200"><defs><style type="text/css"></style></defs><path d="M967.223045 975.252616h-250.910017l-3.225591-2.606072-63.600462-451.552016h179.788297l8.125417-13.793241-209.074615-150.676058c3.220471-56.862561 4.904946-106.833621 5.212146-149.600861h98.411244l20.080584-40.468367-143.01144-146.53399-0.148479 0.1536c-0.465919-0.455679-0.767998-0.916477-1.080317-1.382396C582.809402-3.432643 535.598014-1.743048 485.017676 2.854699 441.333958-0.96993 400.256313-2.808005 373.739907 11.138836L223.985446 167.02192l20.541383 40.002448H336.640491c0.307199 42.92084 1.996794 93.040379 5.217265 150.061659L149.950454 506.22609l8.120297 14.873558h166.153775L270.884515 975.257736H59.362547V1024h907.860498v-48.747384zM574.223186 77.350491c2.145274 17.172432 3.68127 40.929165 4.290548 68.976446l-50.733938-36.326298 46.44339-32.650148z m-26.664886 345.491512l31.569832-16.250834 4.910066 34.339744-36.479898-18.08891z m-12.267485 49.510262H450.836651l41.697164-21.309381 42.757 21.309381z m-36.787097-80.470815l-6.282223 3.220471-6.440942-3.220471h12.723165z m-43.222919-48.742264l37.094296-28.206001 36.024219 28.206001H455.280799z m78.786339-59.775832l44.451716-33.720226c-0.460799 21.918659-1.223677 44.451716-2.145274 66.672454l-42.306442-32.952228z m-41.231244-32.34295L436.429012 207.029488h114.344639l-57.937757 43.990916z m15.631316-92.73318h-49.049463l24.678331-17.474511 24.371132 17.474511zM391.516497 144.488863c0.762878-27.130804 2.145274-50.12466 4.290548-66.831173l44.907395 32.18935-49.197943 34.641823z m-54.563687 13.798361h-34.795422l36.326298-39.23957a1313.225123 1313.225123 0 0 0-1.530876 39.23957z m114.032321 124.461732l-56.862561 43.069319a2998.412084 2998.412084 0 0 1-2.759672-89.819909l59.622233 46.75059z m-13.793242 140.553846l-50.426738 25.748408 5.667824-48.122745 44.758914 22.374337z m105.615065 97.791726l-54.415208 39.085971-58.244957-39.085971h112.660165z m-53.345131 100.551399l109.137615 73.266994-107.14082 95.492853-110.514891-90.895105 108.518096-77.864742z m3.52767 235.7395l123.693734 101.780195-251.985215 12.564444 128.291481-114.344639z m158.796356 64.834378l-120.478383-99.015403 94.576375-84.305684 25.902008 183.321087z m-118.635188-332.00035l65.290057-46.904189 14.10556 100.244199-79.395617-53.34001z m113.576642-117.86719l-4.444148-2.293754-6.292462-44.149636 61.306708 46.29491h-50.570098v0.14848z m25.441209-314.065041h-39.085971c-0.307199-15.175638-0.921597-29.122478-1.832955-41.845643l40.918926 41.845643zM485.017676 51.755682l2.606072-0.307199c15.943635-1.382396 28.6668-2.145274 39.085971-2.452473l-42.454921 29.890476-41.697164-29.890476c10.57789 0.307199 23.454654 1.070077 39.853969 2.452473l2.606073 0.307199zM335.263215 427.900549l-5.212146 44.451716h-49.81234l55.024486-44.451716z m40.309647 117.263032l69.130046 46.43827-81.392412 58.398556 12.262366-104.836826z m77.562663 279.423217l-123.232935 109.900493 22.527937-192.670181 100.704998 82.769688z" fill="#447CBF" p-id="10345"></path></svg>